<svg version="1.1" id="BtcTurkLogo" title="BtcTurk Logo" xmlns="http://www.w3.org/2000/svg" xmlns:xlink="http://www.w3.org/1999/xlink" x="0px"
	 y="0px" width="506.645px" height="128px" viewBox="0 0 506.645 128" enable-background="new 0 0 506.645 128"
	 xml:space="preserve">
<g>
    <defs>
        <path id="SVGID_1_" d="M63.556,111.902c-7.422,5.289-11.857,11.857-9.813,14.755c2.049,2.9,9.727,0.945,17.146-4.352
            c7.422-5.279,11.854-11.852,9.808-14.748c-0.597-0.944-1.792-1.281-3.414-1.281c-0.065-0.005-0.138-0.005-0.208-0.005
            C73.666,106.269,68.569,108.311,63.556,111.902 M22.613,100.645C8.199,106.613-1.778,115.48,0.266,120.517
            c2.05,5.036,15.438,4.266,29.854-1.62c14.414-5.966,24.391-14.836,22.344-19.87c-0.935-2.219-4.093-3.327-8.614-3.327
            c-0.133,0-0.268,0-0.401,0C37.855,95.699,30.357,97.402,22.613,100.645 M88.629,94.673c-2.56,4.867-3.328,9.469-1.792,10.234
            c1.536,0.859,4.862-2.474,7.419-7.328c2.56-4.865,3.328-9.474,1.792-10.239c-0.169-0.084-0.344-0.084-0.511-0.084
            c-0.023,0-0.046-0.005-0.067-0.005C93.756,87.251,90.902,90.379,88.629,94.673 M67.816,81.198
            c-4.942,2.818-7.502,7.589-5.796,10.665c1.791,3.07,7.164,3.153,12.112,0.338c4.948-2.81,7.505-7.588,5.8-10.659
            c-0.938-1.625-2.815-2.387-5.117-2.387C72.681,79.152,70.209,79.834,67.816,81.198 M86.069,74.717
            c-1.451,2.474-1.364,5.2,0.258,6.144c1.537,0.938,4.008-0.428,5.373-2.899c1.45-2.481,1.365-5.205-0.252-6.143
            c-0.341-0.172-0.683-0.26-1.112-0.26C88.97,71.559,87.267,72.84,86.069,74.717 M67.73,64.056c0,2.981,2.729,5.374,6.058,5.374
            c3.326,0,6.141-2.388,6.141-5.374c0-2.987-2.726-5.373-6.141-5.373C70.462,58.683,67.73,61.157,67.73,64.056 M27.05,64.056
            c0,6.653,7.505,12.026,16.8,12.026c9.213,0.082,16.719-5.29,16.719-12.026c0-6.654-7.505-12.029-16.802-12.029
            C34.556,52.027,27.05,57.402,27.05,64.056 M86.499,47.081c-1.536,0.94-1.62,3.667-0.258,6.138
            c1.451,2.474,3.836,3.755,5.375,2.901c1.537-0.94,1.623-3.667,0.255-6.141c-1.107-1.958-2.815-3.154-4.263-3.154
            c-0.078-0.019-0.153-0.024-0.229-0.024C87.053,46.802,86.777,46.943,86.499,47.081 M62.275,36.079
            c-1.792,3.067,0.854,7.849,5.799,10.664c4.948,2.815,10.321,2.727,12.113-0.341c1.793-3.067-0.852-7.844-5.8-10.661
            c-2.388-1.365-4.862-2.047-6.995-2.047C65.089,33.688,63.129,34.459,62.275,36.079 M86.837,23.026
            c-1.537,0.854-0.769,5.375,1.792,10.237c2.557,4.862,5.885,8.102,7.422,7.336c1.534-0.857,0.768-5.375-1.792-10.235
            c-2.302-4.354-5.203-7.424-6.906-7.424C87.178,22.943,87.009,22.943,86.837,23.026 M0.266,7.42
            c-2.046,5.033,7.933,13.901,22.347,19.875c14.417,5.971,27.722,6.653,29.852,1.617c2.05-5.031-7.93-13.901-22.344-19.875
            C22.102,5.802,14.509,4.094,8.884,4.094C4.36,4.094,1.207,5.201,0.266,7.42 M53.66,1.279c-2.049,2.9,2.388,9.468,9.81,14.758
            c7.419,5.286,15.097,7.25,17.141,4.349c2.05-2.901-2.388-9.469-9.807-14.758C65.683,2.047,60.483,0,57.069,0
            C55.452,0,54.256,0.427,53.66,1.279"/>
    </defs>
    <clipPath id="SVGID_2_">
        <use xlink:href="#SVGID_1_"  overflow="visible"/>
    </clipPath>
    
        <linearGradient id="SVGID_3_" gradientUnits="userSpaceOnUse" x1="-156.5308" y1="-167.7158" x2="-155.678" y2="-167.7158" gradientTransform="matrix(113.5439 0 0 113.5439 17773.123 19107.9277)">
        <stop  offset="0" style="stop-color:#003AFF"/>
        <stop  offset="0.2471" style="stop-color:#0067FF"/>
        <stop  offset="0.8035" style="stop-color:#02D6FF"/>
        <stop  offset="1" style="stop-color:#02FFFF"/>
    </linearGradient>
    <rect x="-1.778" y="0" clip-path="url(#SVGID_2_)" fill="url(#SVGID_3_)" width="99.365" height="129.557"/>
</g>
<path fill="#080A16" d="M117.413,23.037h28.13c15.453,0,26.133,8.422,26.133,21.88c0,7.377-3.472,13.281-9.985,16.406
	c9.549,3.125,14.844,10.162,14.844,20.146c0,14.673-11.286,23.613-29.086,23.613h-30.214L117.413,23.037z M144.588,56.985
	c7.812,0,13.287-3.906,13.287-10.94c0-7.034-5.475-10.939-13.287-10.939h-13.284v21.88H144.588z M147.106,92.842
	c9.203,0,15.192-4.252,15.192-12.325c0-7.641-6.25-12.068-15.453-12.068h-15.628v24.394H147.106z M215.002,94.061
	c2.343,0,4.687-0.35,6.424-1.739v12.07c-2.347,1.391-5.643,2.166-10.505,2.166c-11.721,0-18.755-7.031-18.755-19.099V59.157h-10.333
	v-1.912l23.617-24.394h0.346v14.846h15.453v11.547h-15.195v25.787C206.057,91.279,208.752,94.061,215.002,94.061 M259.891,46.219
	c5.815,0,10.939,1.391,15.625,4.081v13.456c-4.688-3.297-9.375-5.034-14.412-5.034c-10.331,0-18.148,7.813-18.148,17.797
	c0,9.987,7.641,17.8,18.148,17.8c5.643,0,10.502-2.342,14.671-5.036v13.458c-4.858,2.693-10.158,4.081-15.976,4.081
	c-18.146,0-30.648-12.675-30.648-30.045C229.067,59.068,241.742,46.219,259.891,46.219 M275.516,23.037h60.514v13.109h-23.006
	v68.938h-14.411V36.146h-23.014V23.037H275.516z M376.668,47.61h13.893v57.391h-13.893V97.36c-3.732,5.472-9.55,8.942-17.8,8.942
	c-13.889,0-22.229-9.197-22.229-24.224v-34.56h13.896v32.04c0,8.944,4.511,14.244,12.675,14.244c8.161,0,13.459-6.255,13.459-15.979
	V47.61z M441.09,60.631c-0.607-0.346-1.737-0.346-3.474-0.346c-10.159,0-16.235,7.821-16.235,19.54v25.349h-13.627V47.61h13.453
	v9.724c2.952-6.599,9.726-10.94,17.364-10.94c1.561,0,2.346,0.175,2.519,0.347V60.631z M463.926,105.001h-13.633V23.037h13.633
	V105.001z M487.279,47.61h17.022l-21.881,27.088l24.224,30.215h-17.019l-24.224-30.215L487.279,47.61z"/>
</svg>
