<?xml version="1.0" encoding="utf-8"?>
<!-- Generator: Adobe Illustrator 24.2.0, SVG Export Plug-In . SVG Version: 6.00 Build 0)  -->
<svg version="1.1" id="Livello_1" xmlns="http://www.w3.org/2000/svg" xmlns:xlink="http://www.w3.org/1999/xlink" x="0px" y="0px"
	 viewBox="0 0 277.8 73.7" style="enable-background:new 0 0 277.8 73.7;" xml:space="preserve">
<style type="text/css">
	.st0{fill:#66A3BE;}
	.st1{fill:#FEC900;}
	.st2{fill:none;}
	.st3{fill:#B0CBD8;}
</style>
<g>
	<path class="st0" d="M17.46,57.13v0.92h-2.62v6.84h-1.06v-6.84h-2.62v-0.92H17.46z"/>
	<path class="st0" d="M20.18,57.13h3.53c0.58,0,1.06,0.09,1.44,0.26c0.72,0.33,1.07,0.94,1.07,1.83c0,0.47-0.1,0.85-0.29,1.14
		c-0.19,0.3-0.46,0.53-0.81,0.71c0.3,0.12,0.53,0.29,0.68,0.49c0.15,0.2,0.24,0.53,0.26,0.98l0.04,1.04
		c0.01,0.3,0.04,0.52,0.07,0.66c0.06,0.25,0.18,0.41,0.34,0.48v0.17h-1.29c-0.04-0.07-0.06-0.15-0.08-0.26
		c-0.02-0.11-0.04-0.31-0.05-0.61l-0.06-1.29c-0.02-0.51-0.21-0.85-0.55-1.02c-0.2-0.1-0.5-0.14-0.92-0.14h-2.33v3.33h-1.05V57.13z
		 M23.6,60.69c0.48,0,0.86-0.1,1.14-0.3c0.28-0.2,0.42-0.55,0.42-1.07c0-0.55-0.2-0.93-0.59-1.13c-0.21-0.11-0.49-0.16-0.84-0.16
		h-2.5v2.65H23.6z"/>
	<path class="st0" d="M31.76,57.13h1.19l2.82,7.76h-1.15l-0.81-2.33h-3.05l-0.84,2.33h-1.08L31.76,57.13z M33.5,61.71l-1.2-3.43
		l-1.24,3.43H33.5z"/>
	<path class="st0" d="M38.33,57.13h1.24l3.87,6.27v-6.27h1v7.76h-1.18l-3.93-6.26v6.26h-1V57.13z"/>
	<path class="st0" d="M48.46,62.39c0.02,0.44,0.12,0.8,0.3,1.07c0.34,0.51,0.93,0.77,1.78,0.77c0.38,0,0.73-0.06,1.04-0.17
		c0.6-0.22,0.91-0.61,0.91-1.17c0-0.42-0.13-0.72-0.38-0.9c-0.26-0.18-0.67-0.33-1.22-0.46l-1.02-0.24
		c-0.67-0.15-1.14-0.33-1.41-0.51c-0.48-0.32-0.72-0.81-0.72-1.45c0-0.7,0.23-1.27,0.7-1.72s1.13-0.67,1.99-0.67
		c0.79,0,1.46,0.2,2.02,0.59c0.55,0.39,0.83,1.02,0.83,1.88h-0.99c-0.05-0.42-0.16-0.73-0.32-0.96c-0.31-0.4-0.83-0.61-1.57-0.61
		c-0.59,0-1.02,0.13-1.28,0.39c-0.26,0.26-0.39,0.56-0.39,0.91c0,0.38,0.15,0.66,0.46,0.83c0.2,0.11,0.66,0.25,1.37,0.42l1.05,0.25
		c0.51,0.12,0.9,0.28,1.18,0.49c0.48,0.36,0.72,0.89,0.72,1.58c0,0.86-0.3,1.47-0.91,1.84c-0.61,0.37-1.32,0.55-2.13,0.55
		c-0.94,0-1.68-0.25-2.21-0.74c-0.53-0.49-0.79-1.15-0.78-1.99H48.46z"/>
	<path class="st0" d="M56.71,57.13h3.47c0.69,0,1.24,0.2,1.66,0.58c0.42,0.39,0.63,0.94,0.63,1.64c0,0.61-0.19,1.13-0.57,1.58
		c-0.38,0.45-0.95,0.67-1.73,0.67h-2.42v3.28h-1.05V57.13z M60.79,58.2c-0.23-0.11-0.55-0.16-0.95-0.16h-2.08v2.69h2.08
		c0.47,0,0.85-0.1,1.14-0.3c0.29-0.2,0.44-0.55,0.44-1.06C61.42,58.79,61.21,58.4,60.79,58.2z"/>
	<path class="st0" d="M67.72,57.13h1.19l2.82,7.76h-1.15l-0.81-2.33h-3.05l-0.84,2.33H64.8L67.72,57.13z M69.46,61.71l-1.2-3.43
		l-1.24,3.43H69.46z"/>
	<path class="st0" d="M74.42,57.13h3.53c0.58,0,1.06,0.09,1.44,0.26c0.72,0.33,1.07,0.94,1.07,1.83c0,0.47-0.1,0.85-0.29,1.14
		c-0.19,0.3-0.46,0.53-0.81,0.71c0.3,0.12,0.53,0.29,0.68,0.49c0.15,0.2,0.24,0.53,0.26,0.98l0.04,1.04
		c0.01,0.3,0.04,0.52,0.07,0.66c0.06,0.25,0.18,0.41,0.34,0.48v0.17h-1.29c-0.04-0.07-0.06-0.15-0.08-0.26
		c-0.02-0.11-0.04-0.31-0.05-0.61l-0.06-1.29c-0.02-0.51-0.21-0.85-0.55-1.02c-0.2-0.1-0.5-0.14-0.92-0.14h-2.33v3.33h-1.05V57.13z
		 M77.84,60.69c0.48,0,0.86-0.1,1.14-0.3c0.28-0.2,0.42-0.55,0.42-1.07c0-0.55-0.2-0.93-0.59-1.13c-0.21-0.11-0.49-0.16-0.84-0.16
		h-2.5v2.65H77.84z"/>
	<path class="st0" d="M83.84,57.13h5.63v0.95h-4.61v2.36h4.26v0.9h-4.26v2.63h4.69v0.92h-5.71V57.13z"/>
	<path class="st0" d="M92.58,57.13h1.24l3.87,6.27v-6.27h1v7.76h-1.18l-3.93-6.26v6.26h-1V57.13z"/>
	<path class="st0" d="M107.66,57.13v0.92h-2.62v6.84h-1.06v-6.84h-2.62v-0.92H107.66z"/>
	<path class="st0" d="M114.85,57.13h3.36c0.91,0,1.56,0.27,1.95,0.81c0.23,0.32,0.34,0.69,0.34,1.11c0,0.49-0.14,0.89-0.42,1.2
		c-0.14,0.17-0.35,0.32-0.62,0.45c0.4,0.15,0.7,0.32,0.89,0.51c0.35,0.34,0.52,0.81,0.52,1.4c0,0.5-0.16,0.95-0.47,1.36
		c-0.47,0.61-1.22,0.91-2.25,0.91h-3.3V57.13z M117.81,60.41c0.45,0,0.8-0.06,1.05-0.18c0.39-0.19,0.59-0.54,0.59-1.05
		c0-0.51-0.21-0.85-0.62-1.02c-0.24-0.1-0.58-0.15-1.05-0.15h-1.9v2.4H117.81z M118.17,63.99c0.65,0,1.11-0.19,1.39-0.56
		c0.17-0.24,0.26-0.52,0.26-0.86c0-0.56-0.25-0.95-0.76-1.15c-0.27-0.11-0.63-0.16-1.07-0.16h-2.11v2.73H118.17z"/>
	<path class="st0" d="M123.96,57.13h1.06v7.76h-1.06V57.13z"/>
	<path class="st0" d="M133.99,57.13v0.92h-2.62v6.84h-1.06v-6.84h-2.62v-0.92H133.99z"/>
	<path class="st0" d="M142.07,57.7c0.54,0.52,0.83,1.11,0.89,1.77h-1.03c-0.11-0.5-0.34-0.9-0.68-1.19
		c-0.34-0.29-0.82-0.44-1.43-0.44c-0.75,0-1.36,0.27-1.82,0.81c-0.46,0.54-0.69,1.36-0.69,2.47c0,0.91,0.21,1.65,0.63,2.21
		c0.42,0.57,1.04,0.85,1.87,0.85c0.76,0,1.34-0.3,1.74-0.89c0.21-0.31,0.37-0.73,0.47-1.24h1.02c-0.09,0.82-0.39,1.5-0.9,2.06
		c-0.61,0.67-1.43,1-2.47,1c-0.89,0-1.64-0.27-2.25-0.82c-0.8-0.72-1.2-1.84-1.2-3.35c0-1.15,0.3-2.08,0.9-2.82
		c0.65-0.8,1.54-1.2,2.68-1.2C140.78,56.92,141.54,57.18,142.07,57.7z"/>
	<path class="st0" d="M152.41,58.24c0.51,0.69,0.77,1.57,0.77,2.64c0,1.16-0.29,2.12-0.88,2.89c-0.69,0.9-1.67,1.35-2.95,1.35
		c-1.19,0-2.13-0.39-2.82-1.18c-0.61-0.76-0.91-1.72-0.91-2.89c0-1.05,0.26-1.95,0.78-2.69c0.67-0.96,1.66-1.44,2.97-1.44
		C150.74,56.92,151.76,57.36,152.41,58.24z M151.49,63.19c0.41-0.67,0.62-1.43,0.62-2.29c0-0.91-0.24-1.65-0.72-2.21
		c-0.48-0.56-1.13-0.84-1.96-0.84c-0.8,0-1.46,0.28-1.97,0.83c-0.51,0.55-0.76,1.37-0.76,2.44c0,0.86,0.22,1.59,0.65,2.18
		c0.44,0.59,1.14,0.89,2.12,0.89C150.4,64.18,151.07,63.85,151.49,63.19z"/>
	<path class="st0" d="M156.3,57.13h1.06v7.76h-1.06V57.13z"/>
	<path class="st0" d="M160.69,57.13h1.24l3.87,6.27v-6.27h1v7.76h-1.18l-3.93-6.26v6.26h-1V57.13z"/>
	<path class="st0" d="M180.25,57.7c0.54,0.52,0.83,1.11,0.89,1.77h-1.03c-0.11-0.5-0.34-0.9-0.68-1.19
		c-0.34-0.29-0.82-0.44-1.44-0.44c-0.75,0-1.36,0.27-1.82,0.81c-0.46,0.54-0.69,1.36-0.69,2.47c0,0.91,0.21,1.65,0.63,2.21
		c0.42,0.57,1.04,0.85,1.87,0.85c0.76,0,1.34-0.3,1.74-0.89c0.21-0.31,0.37-0.73,0.47-1.24h1.02c-0.09,0.82-0.39,1.5-0.9,2.06
		c-0.61,0.67-1.43,1-2.47,1c-0.89,0-1.64-0.27-2.25-0.82c-0.8-0.72-1.2-1.84-1.2-3.35c0-1.15,0.3-2.08,0.9-2.82
		c0.65-0.8,1.54-1.2,2.68-1.2C178.96,56.92,179.71,57.18,180.25,57.7z"/>
	<path class="st0" d="M185.33,57.13v4.8c0,0.56,0.11,1.03,0.32,1.41c0.32,0.56,0.85,0.85,1.6,0.85c0.9,0,1.51-0.3,1.83-0.91
		c0.17-0.33,0.26-0.78,0.26-1.34v-4.8h1.06v4.36c0,0.96-0.13,1.69-0.39,2.2c-0.47,0.94-1.37,1.41-2.68,1.41s-2.21-0.47-2.68-1.41
		c-0.26-0.51-0.39-1.25-0.39-2.2v-4.36H185.33z"/>
	<path class="st0" d="M194.32,62.39c0.02,0.44,0.12,0.8,0.3,1.07c0.34,0.51,0.93,0.77,1.78,0.77c0.38,0,0.73-0.06,1.04-0.17
		c0.6-0.22,0.91-0.61,0.91-1.17c0-0.42-0.13-0.72-0.38-0.9c-0.26-0.18-0.67-0.33-1.22-0.46l-1.02-0.24
		c-0.67-0.15-1.14-0.33-1.41-0.51c-0.48-0.32-0.72-0.81-0.72-1.45c0-0.7,0.24-1.27,0.71-1.72c0.47-0.45,1.13-0.67,1.99-0.67
		c0.79,0,1.46,0.2,2.02,0.59c0.55,0.39,0.83,1.02,0.83,1.88h-0.99c-0.05-0.42-0.16-0.73-0.32-0.96c-0.31-0.4-0.83-0.61-1.56-0.61
		c-0.59,0-1.02,0.13-1.28,0.39c-0.26,0.26-0.39,0.56-0.39,0.91c0,0.38,0.15,0.66,0.46,0.83c0.2,0.11,0.66,0.25,1.37,0.42l1.06,0.25
		c0.51,0.12,0.9,0.28,1.18,0.49c0.48,0.36,0.72,0.89,0.72,1.58c0,0.86-0.3,1.47-0.91,1.84c-0.61,0.37-1.32,0.55-2.13,0.55
		c-0.94,0-1.68-0.25-2.21-0.74c-0.53-0.49-0.79-1.15-0.78-1.99H194.32z"/>
	<path class="st0" d="M208.12,57.13v0.92h-2.62v6.84h-1.06v-6.84h-2.62v-0.92H208.12z"/>
	<path class="st0" d="M217.11,58.24c0.51,0.69,0.77,1.57,0.77,2.64c0,1.16-0.29,2.12-0.88,2.89c-0.69,0.9-1.68,1.35-2.95,1.35
		c-1.19,0-2.13-0.39-2.82-1.18c-0.61-0.76-0.91-1.72-0.91-2.89c0-1.05,0.26-1.95,0.78-2.69c0.67-0.96,1.66-1.44,2.97-1.44
		C215.43,56.92,216.45,57.36,217.11,58.24z M216.18,63.19c0.41-0.67,0.62-1.43,0.62-2.29c0-0.91-0.24-1.65-0.72-2.21
		c-0.48-0.56-1.13-0.84-1.96-0.84c-0.8,0-1.46,0.28-1.97,0.83c-0.51,0.55-0.76,1.37-0.76,2.44c0,0.86,0.22,1.59,0.65,2.18
		c0.44,0.59,1.14,0.89,2.12,0.89C215.09,64.18,215.76,63.85,216.18,63.19z"/>
	<path class="st0" d="M220.8,57.13h3.1c1.05,0,1.87,0.38,2.45,1.14c0.52,0.68,0.78,1.56,0.78,2.63c0,0.82-0.15,1.57-0.46,2.23
		c-0.54,1.18-1.47,1.77-2.78,1.77h-3.09V57.13z M223.7,63.99c0.35,0,0.63-0.04,0.86-0.11c0.4-0.14,0.73-0.4,0.98-0.79
		c0.2-0.31,0.35-0.72,0.44-1.21c0.05-0.29,0.08-0.56,0.08-0.81c0-0.96-0.19-1.71-0.56-2.24c-0.37-0.53-0.98-0.8-1.81-0.8h-1.82v5.96
		H223.7z"/>
	<path class="st0" d="M229.59,57.13h1.23l2.23,3.73l2.23-3.73h1.24l-2.94,4.63v3.13h-1.05v-3.13L229.59,57.13z"/>
	<path d="M58.4,28.14c0-12.88,8.76-19.41,18.97-19.41c4.26,0,7.87,0.89,10.6,2.43l-1.09,5.15c-2.67-1.24-5.55-1.93-9.51-1.93
		c-6.98,0-11.54,4.95-11.54,13.42c0,8.52,4.46,13.27,11.34,13.27c3.57,0,6.24-0.74,9.06-2.33l1.24,5
		c-3.81,2.13-7.48,3.02-11.89,3.02C66.03,46.76,58.4,41.12,58.4,28.14z"/>
	<path d="M116.04,31.46v14.61h-6.98v-15.1c0-4.41-1.39-6.09-4.85-6.09c-1.68,0-3.27,0.69-4.7,2.08v19.12h-6.98V9.08l6.98-0.49V22
		c2.38-1.54,5-2.48,7.68-2.48c5.35,0,8.27,2.48,8.77,7.63C116.04,28.29,116.04,29.78,116.04,31.46z"/>
	<path d="M141.44,40.28l1.04,4.51c-2.97,1.44-5.79,1.98-9.11,1.98c-8.47,0-12.58-4.01-12.58-13.37c0-8.96,4.26-13.87,12.03-13.87
		c7.33,0,9.9,4.7,10.3,11.14c0.1,1.63,0.1,2.77,0.1,4.21h-15.6c0.4,4.7,2.43,6.49,7.03,6.49C137.33,41.36,139.16,41.02,141.44,40.28
		z M127.82,30.67h8.62c-0.2-3.81-0.99-5.79-3.91-5.79C129.36,24.87,128.02,26.76,127.82,30.67z"/>
	<path d="M147.14,33.34c0-9.41,5.1-13.82,13.17-13.82c3.17,0,5.79,0.69,7.53,1.73l-0.74,4.51c-1.93-0.69-3.76-0.89-5.64-0.89
		c-4.85,0-7.28,2.28-7.28,8.37c0,5.94,2.67,8.17,6.83,8.17c1.98,0,3.57-0.25,5.74-0.94l0.94,4.46c-2.48,1.34-4.95,1.83-8.42,1.83
		C152.19,46.76,147.14,43.2,147.14,33.34z"/>
	<path d="M188.39,46.07l-8.96-12.73v12.73h-6.98V9.08l6.98-0.49v23.87l10-12.83l7.43,0.69l-10.6,11.64l11.09,14.11H188.39z"/>
	<path class="st0" d="M199.73,43.94l1.68-4.95c2.97,1.49,5.94,2.08,8.72,2.08c4.11,0,6.54-1.83,6.54-4.61
		c0-2.67-1.78-4.31-7.03-6.93c-4.8-2.33-8.32-4.8-8.32-10.4c0-6.04,5.2-10.4,12.68-10.4c3.22,0,6.34,0.64,8.82,2.03l-1.44,4.9
		c-2.13-0.84-4.66-1.29-7.03-1.29c-3.32,0-5.84,1.54-5.84,4.01c0,2.43,1.63,4.31,5.65,6.19c6.24,2.97,9.8,5.69,9.8,10.99
		c0,7.18-6.14,11.19-14.21,11.19C206.31,46.76,202.3,45.87,199.73,43.94z"/>
	<path class="st0" d="M229.58,20.37l6.98-0.5v26.2h-6.98V20.37z M229.63,9.47c1.63-0.35,5.3-0.35,6.93,0v6.09
		c-1.63,0.3-5.3,0.3-6.93,0V9.47z"/>
	<path class="st0" d="M265.88,25.27h-2.48c0.54,1.04,0.84,2.33,0.84,3.76c0,3.12-1.59,5.55-4.21,6.98
		c-0.25,0.59-0.35,1.04-0.35,1.58c0,1.09,0.69,2.08,1.98,3.22c2.57,2.18,3.71,4.36,3.71,6.93c0,5.84-4.85,9.21-12.48,9.21
		c-6.93,0-11.79-2.53-11.79-8.52c0-5.65,4.75-8.42,10.8-8.42c0.54,0,1.09,0,1.63,0.05c-0.05-0.64,0.25-1.63,0.79-2.57
		c-0.45,0.05-0.89,0.05-1.34,0.05c-6.14,0-10.8-2.97-10.8-8.86c0-5.84,5.15-9.11,11.14-9.11c1.59,0,3.07,0.2,4.31,0.64h8.96
		L265.88,25.27z M258.26,47.55c0-1.24-0.4-2.57-1.39-3.71c-0.99-0.15-2.08-0.25-3.07-0.25c-3.57,0-5.5,1.44-5.5,4.46
		c0,2.67,1.88,4.01,4.95,4.01C256.52,52.06,258.26,50.33,258.26,47.55z M253.25,32.9c2.62,0,4.56-1.39,4.56-4.36
		c0-2.92-1.83-4.31-4.51-4.31c-2.62,0-4.61,1.39-4.61,4.41C248.7,31.51,250.58,32.9,253.25,32.9z"/>
	<g>
		<g>
			<path class="st1" d="M34.41,26.88h-8.13l1.15-8.06h5.83L34.41,26.88z"/>
		</g>
		<g>
			<g>
				<path class="st1" d="M39.26,36.71h-8.13l1.15-8.06h5.83L39.26,36.71z"/>
			</g>
			<g>
				<path class="st1" d="M29.56,36.71h-8.13l1.15-8.13h5.84L29.56,36.71z"/>
			</g>
		</g>
	</g>
	<g>
		<rect x="17.31" y="14.87" class="st2" width="26.07" height="25.78"/>
		<polygon class="st3" points="43.38,40.65 17.31,40.65 17.31,46.79 49.52,46.79 49.52,14.87 43.38,14.87 		"/>
		<polygon class="st0" points="11.17,8.73 11.17,46.79 17.31,46.79 17.31,14.87 49.52,14.87 49.52,8.73 		"/>
	</g>
</g>
</svg>
