<?xml version="1.0" encoding="utf-8"?>
<!-- Generator: Adobe Illustrator 24.3.0, SVG Export Plug-In . SVG Version: 6.00 Build 0)  -->
<svg version="1.1" id="Layer_1" xmlns="http://www.w3.org/2000/svg" xmlns:xlink="http://www.w3.org/1999/xlink" x="0px" y="0px"
	 viewBox="0 0 473.57 89.81" enable-background="new 0 0 473.57 89.81" xml:space="preserve">
<g>
	<path fill="#F37323" d="M1.77,45.41c0-26.09,19.63-43.7,45.09-43.7c18.49,0,29.26,10.01,35.21,20.65l-15.45,7.6
		c-3.55-6.84-11.15-12.29-19.76-12.29c-15.45,0-26.6,11.78-26.6,27.74c0,15.96,11.15,27.74,26.6,27.74
		c8.61,0,16.21-5.45,19.76-12.29l15.45,7.47c-5.95,10.51-16.72,20.77-35.21,20.77C21.4,89.11,1.77,71.38,1.77,45.41z"/>
	<path fill="#F37323" d="M88.53,56.94c0-17.35,12.16-32.05,32.3-32.05c20.27,0,32.43,14.69,32.43,32.05
		c0,17.35-12.16,32.17-32.43,32.17C100.69,89.11,88.53,74.29,88.53,56.94z M136.53,56.94c0-9.5-5.57-17.73-15.71-17.73
		c-10.01,0-15.58,8.23-15.58,17.73c0,9.63,5.57,17.86,15.58,17.86C130.96,74.8,136.53,66.56,136.53,56.94z"/>
	<path fill="#F37323" d="M163.77,10.2c0-5.32,4.31-9.5,9.5-9.5c5.32,0,9.63,4.18,9.63,9.5s-4.31,9.63-9.63,9.63
		C168.07,19.83,163.77,15.52,163.77,10.2z M165.29,87.59V26.41h16.09v61.18H165.29z"/>
	<path fill="#F37323" d="M238.62,87.59V50.61c0-8.49-4.43-11.4-11.27-11.4c-6.33,0-11.15,3.55-13.93,7.09v41.29h-16.09V26.41h16.09
		v7.85c3.93-4.56,11.53-9.37,21.41-9.37c13.55,0,20.01,7.6,20.01,19.51v43.19H238.62z"/>
	<path fill="#F37323" d="M310.31,87.59L294.1,64.03l-7.35,7.85v15.71h-16.09V3.11h16.09v50.54l23.18-27.23h19.76L305.5,54.15
		l24.95,33.44H310.31z"/>
	<path fill="#F37323" d="M337.03,10.2c0-5.32,4.31-9.5,9.5-9.5c5.32,0,9.63,4.18,9.63,9.5s-4.31,9.63-9.63,9.63
		C341.34,19.83,337.03,15.52,337.03,10.2z M338.55,87.59V26.41h16.09v61.18H338.55z"/>
	<path fill="#F37323" d="M373.89,72.26V40.47h-10.13V26.41h10.13V9.69h16.09v16.72h12.41v14.06h-12.41v27.49
		c0,3.93,2.03,6.84,5.57,6.84c2.41,0,4.69-0.89,5.57-1.9l3.42,12.29c-2.41,2.15-6.71,3.93-13.43,3.93
		C379.84,89.11,373.89,83.28,373.89,72.26z"/>
	<path fill="#F37323" d="M409.48,56.94c0-17.73,13.17-32.05,31.67-32.05c18.37,0,30.65,13.68,30.65,33.57v3.8h-45.47
		c1.14,7.47,7.22,13.68,17.61,13.68c5.19,0,12.29-2.15,16.21-5.95l7.22,10.64c-6.08,5.57-15.71,8.49-25.21,8.49
		C423.54,89.11,409.48,76.57,409.48,56.94z M441.15,38.07c-10.01,0-14.31,6.97-14.95,13.05h30.15
		C455.84,45.28,451.79,38.07,441.15,38.07z"/>
</g>
</svg>
