<svg xmlns="http://www.w3.org/2000/svg" xmlns:xlink="http://www.w3.org/1999/xlink" viewBox="0 0 454.93 62.7"><defs><style>.cls-1{fill:#1f1f26;}.cls-2{fill:url(#linear-gradient);}.cls-3{fill:url(#linear-gradient-2);}.cls-4{fill:url(#linear-gradient-3);}.cls-5{fill:url(#linear-gradient-4);}.cls-6{fill:url(#linear-gradient-5);}</style><linearGradient id="linear-gradient" x1="-5.97" y1="24.55" x2="69.84" y2="70.58" gradientUnits="userSpaceOnUse"><stop offset="0" stop-color="#ffa07a"/><stop offset="0.14" stop-color="#cc5f4c"/><stop offset="0.35" stop-color="#8b3f38"/><stop offset="0.66" stop-color="#cc5f4c"/><stop offset="1" stop-color="#ffa07a"/></linearGradient><linearGradient id="linear-gradient-2" x1="5.2" y1="6.15" x2="81.01" y2="52.18" xlink:href="#linear-gradient"/><linearGradient id="linear-gradient-3" x1="8.86" y1="0.11" x2="84.68" y2="46.14" xlink:href="#linear-gradient"/><linearGradient id="linear-gradient-4" x1="6.9" y1="3.34" x2="82.72" y2="49.37" xlink:href="#linear-gradient"/><linearGradient id="linear-gradient-5" x1="-8.85" y1="29.28" x2="66.96" y2="75.31" xlink:href="#linear-gradient"/></defs><g id="Layer_2" data-name="Layer 2"><g id="Layer_1-2" data-name="Layer 1"><path class="cls-1" d="M125.86,20.17a.64.64,0,0,1,.64-.64h13.75a.64.64,0,0,1,.64.64v2.77a.64.64,0,0,1-.64.64h-10v6.35h7.5a.61.61,0,0,1,.61.61v2.83a.61.61,0,0,1-.61.62h-7.5v8.54a.64.64,0,0,1-.64.64H126.5a.64.64,0,0,1-.64-.64Z"/><path class="cls-1" d="M167.55,19.19a12.16,12.16,0,1,1-12.13,12.19A12.14,12.14,0,0,1,167.55,19.19Zm0,19.93a7.77,7.77,0,1,0-7.73-7.74A7.78,7.78,0,0,0,167.55,39.12Z"/><path class="cls-1" d="M196.56,20.17a.67.67,0,0,1,.64-.64h3.21a.64.64,0,0,1,.65.64V34a4.92,4.92,0,1,0,9.83,0V20.17a.64.64,0,0,1,.64-.64h3.21a.66.66,0,0,1,.64.64v14a9.41,9.41,0,0,1-18.82,0Z"/><path class="cls-1" d="M233.88,19.8a.63.63,0,0,1,.64-.61h.84l14.06,14.93h0V20.17a.64.64,0,0,1,.64-.64h3.11a.66.66,0,0,1,.64.64V42.9a.63.63,0,0,1-.64.61h-.81L238.27,28h0V42.53a.64.64,0,0,1-.64.64h-3.07a.66.66,0,0,1-.64-.64Z"/><path class="cls-1" d="M272.58,20.17a.63.63,0,0,1,.61-.64h8a11.82,11.82,0,1,1,0,23.64h-8a.63.63,0,0,1-.61-.64Zm8.21,18.88a7.46,7.46,0,0,0,7.6-7.73,7.45,7.45,0,0,0-7.6-7.71h-3.85V39.05Z"/><path class="cls-1" d="M328.54,42.3,318.13,19.56a.58.58,0,0,0-.57-.37h-.34a.62.62,0,0,0-.58.37L306.14,42.3a.59.59,0,0,0,.57.87h2.94a1,1,0,0,0,1-.67l6.62-14.83h.1L324,42.5a1,1,0,0,0,1,.67H328A.59.59,0,0,0,328.54,42.3Z"/><path class="cls-1" d="M348,23.58H342.8a.64.64,0,0,1-.64-.64V20.17a.64.64,0,0,1,.64-.64h14.76a.64.64,0,0,1,.64.64v2.77a.64.64,0,0,1-.64.64h-5.17v19a.66.66,0,0,1-.64.64h-3.14a.66.66,0,0,1-.64-.64Z"/><path class="cls-1" d="M377,20.17a.66.66,0,0,1,.64-.64h3.14a.67.67,0,0,1,.65.64V42.53a.67.67,0,0,1-.65.64h-3.14a.66.66,0,0,1-.64-.64Z"/><path class="cls-1" d="M409.39,19.19a12.16,12.16,0,1,1-12.12,12.19A12.14,12.14,0,0,1,409.39,19.19Zm0,19.93a7.77,7.77,0,1,0-7.73-7.74A7.79,7.79,0,0,0,409.39,39.12Z"/><path class="cls-1" d="M435,19.8a.64.64,0,0,1,.65-.61h.84L450.5,34.12h0V20.17a.64.64,0,0,1,.64-.64h3.11a.66.66,0,0,1,.64.64V42.9a.63.63,0,0,1-.64.61h-.81L439.36,28h0V42.53a.64.64,0,0,1-.64.64h-3.07a.67.67,0,0,1-.65-.64Z"/><path class="cls-2" d="M19.79,44.77V30.42A.81.81,0,0,0,18.28,30L11.35,42a.81.81,0,0,0-.11.41v2.35a.81.81,0,0,0,.81.81H19A.81.81,0,0,0,19.79,44.77Z"/><path class="cls-3" d="M36.88,44.77V.81a.81.81,0,0,0-1.51-.4l-6.92,12a.87.87,0,0,0-.11.41v32a.81.81,0,0,0,.81.81h6.92A.81.81,0,0,0,36.88,44.77Z"/><path class="cls-4" d="M54,44.77V12.83a.8.8,0,0,0-.11-.4L46.94.43a.81.81,0,0,0-1.51.4V44.77a.81.81,0,0,0,.81.81h6.93A.81.81,0,0,0,54,44.77Z"/><path class="cls-5" d="M71.07,44.77V42.44A.87.87,0,0,0,71,42L64,30a.81.81,0,0,0-1.51.4V44.77a.81.81,0,0,0,.81.81h6.92A.81.81,0,0,0,71.07,44.77Z"/><path class="cls-6" d="M78.2,54.56a.84.84,0,0,0-.71-.41H4.81a.81.81,0,0,0-.7.41l-4,6.92a.81.81,0,0,0,.7,1.22H81.49a.81.81,0,0,0,.7-1.22Z"/></g></g></svg>