<?xml version="1.0" encoding="UTF-8"?>
<svg width="126px" height="29px" viewBox="0 0 126 29" version="1.1" xmlns="http://www.w3.org/2000/svg" xmlns:xlink="http://www.w3.org/1999/xlink">
    <!-- Generator: Sketch 49.1 (51147) - http://www.bohemiancoding.com/sketch -->
    <title>Logo Copy</title>
    <desc>Created with Sketch.</desc>
    <defs>
        <polygon id="path-1" points="0 0.236205534 28.5384664 0.236205534 28.5384664 28.7747036 0 28.7747036"></polygon>
    </defs>
    <g id="Page-1" stroke="none" stroke-width="1" fill="none" fill-rule="evenodd">
        <g id="Jobs" transform="translate(-208.000000, -30.000000)">
            <g id="Navbar" transform="translate(-3.000000, 30.000000)">
                <g id="Logo-Copy" transform="translate(211.000000, 0.000000)">
                    <path d="M39.5225929,18.2216917 C37.2851225,18.2216917 36.2783241,17.1029565 36.2783241,15.6487273 L36.3902609,15.5367905 L37.7325534,15.5367905 L37.8444901,15.6487273 C37.8444901,16.4316522 38.2919209,16.8793992 39.6345296,16.8793992 C40.6413281,16.8793992 41.2006957,16.5435889 41.2006957,15.8722846 C41.2006957,15.0893597 40.7532648,14.8654862 39.1870988,14.6419289 C37.6209328,14.4180553 36.3902609,13.8586877 36.3902609,12.2925217 C36.3902609,11.1737866 37.2851225,10.1669881 39.4106561,10.1669881 C41.5361897,10.1669881 42.4313676,11.1737866 42.4313676,12.5163953 L42.3194308,12.6280158 L40.9768221,12.6280158 L40.8652016,12.5163953 C40.8652016,11.8450909 40.5293913,11.5092806 39.2987194,11.5092806 C38.2919209,11.5092806 37.9564269,11.8450909 37.9564269,12.2925217 C37.9564269,12.9638261 38.4038577,13.1873834 39.9700237,13.4112569 C41.5361897,13.6351304 42.7668617,14.3061186 42.7668617,15.8722846 C42.7668617,17.1029565 41.872,18.2216917 39.5225929,18.2216917" id="Fill-1" fill="#000000"></path>
                    <path d="M48.1368854,12.2925534 L48.0252648,12.2925534 L47.0181502,14.9774545 L47.130087,15.0893913 L49.0320632,15.0893913 L49.144,14.9774545 L48.1368854,12.2925534 Z M51.3811542,18.1097866 L50.3746719,18.1097866 L50.2627352,17.9978498 L49.7033676,16.5436206 L49.4794941,16.4316838 L46.6826561,16.4316838 L46.4590988,16.5436206 L45.899415,17.9978498 L45.7877945,18.1097866 L44.780996,18.1097866 L44.6690593,17.9978498 L44.6690593,16.8794308 L47.2420237,10.3905771 L47.3539605,10.2789565 L48.8081897,10.2789565 L48.9201265,10.3905771 L51.4930909,16.8794308 L51.4930909,17.9978498 L51.3811542,18.1097866 Z" id="Fill-3" fill="#000000"></path>
                    <polygon id="Fill-5" fill="#000000" points="58.9891542 11.6212174 56.7516838 11.6212174 56.639747 11.7331542 56.639747 17.9978182 56.5278103 18.1097549 55.1855178 18.1097549 55.073581 17.9978182 55.073581 11.7331542 54.9616443 11.6212174 52.7244901 11.6212174 52.6125534 11.5092806 52.6125534 10.3905455 52.7244901 10.2789249 58.9891542 10.2789249 59.1010909 10.3905455 59.1010909 11.5092806"></polygon>
                    <path d="M64.6948933,11.5092806 C63.240664,11.5092806 62.4574229,12.6280158 62.4574229,14.1941818 C62.4574229,15.760664 63.240664,16.8793992 64.6948933,16.8793992 C66.1497549,16.8793992 66.9323636,15.760664 66.9323636,14.1941818 C66.9323636,12.6280158 66.1497549,11.5092806 64.6948933,11.5092806 M64.6948933,18.2216917 C62.3458024,18.2216917 60.8912569,16.5435889 60.8912569,14.1941818 C60.8912569,11.8450909 62.3458024,10.1669881 64.6948933,10.1669881 C67.0446166,10.1669881 68.4988458,11.8450909 68.4988458,14.1941818 C68.4988458,16.5435889 67.0446166,18.2216917 64.6948933,18.2216917" id="Fill-7" fill="#000000"></path>
                    <path d="M73.9809644,18.2216917 C71.7434941,18.2216917 70.7366957,17.1029565 70.7366957,15.6487273 L70.8486324,15.5367905 L72.1909249,15.5367905 L72.3028617,15.6487273 C72.3028617,16.4316522 72.7502925,16.8793992 74.0929012,16.8793992 C75.0996996,16.8793992 75.6593834,16.5435889 75.6593834,15.8722846 C75.6593834,15.0893597 75.2119526,14.8654862 73.6451542,14.6419289 C72.0789881,14.4180553 70.8486324,13.8586877 70.8486324,12.2925217 C70.8486324,11.1737866 71.7434941,10.1669881 73.8690277,10.1669881 C75.9945613,10.1669881 76.8894229,11.1737866 76.8894229,12.5163953 L76.7778024,12.6280158 L75.4355099,12.6280158 L75.3232569,12.5163953 C75.3232569,11.8450909 74.9880791,11.5092806 73.7570909,11.5092806 C72.7502925,11.5092806 72.4147984,11.8450909 72.4147984,12.2925217 C72.4147984,12.9638261 72.8622292,13.1873834 74.4283953,13.4112569 C75.9945613,13.6351304 77.2252332,14.3061186 77.2252332,15.8722846 C77.2252332,17.1029565 76.3303715,18.2216917 73.9809644,18.2216917" id="Fill-9" fill="#000000"></path>
                    <polygon id="Fill-11" fill="#000000" points="86.1755573 18.1097549 84.8329486 18.1097549 84.7206957 17.9978182 84.7206957 14.8654862 84.6090751 14.7535494 81.5886798 14.7535494 81.4767431 14.8654862 81.4767431 17.9978182 81.3648063 18.1097549 80.0225138 18.1097549 79.9105771 17.9978182 79.9105771 10.3905455 80.0225138 10.2789249 81.3648063 10.2789249 81.4767431 10.3905455 81.4767431 13.2993202 81.5886798 13.4112569 84.6090751 13.4112569 84.7206957 13.2993202 84.7206957 10.3905455 84.8329486 10.2789249 86.1755573 10.2789249 86.2871779 10.3905455 86.2871779 17.9978182"></polygon>
                    <polygon id="Fill-13" fill="#000000" points="90.874498 18.1097549 89.5322055 18.1097549 89.4199526 17.9978182 89.4199526 10.3905455 89.5322055 10.2789249 90.874498 10.2789249 90.9864348 10.3905455 90.9864348 17.9978182"></polygon>
                    <polygon id="Fill-15" fill="#000000" points="99.2650435 18.1097549 94.2307352 18.1097549 94.1191146 17.9978182 94.1191146 10.3905455 94.2307352 10.2789249 95.5733439 10.2789249 95.6852806 10.3905455 95.6852806 16.6555257 95.7969012 16.7674625 99.2650435 16.7674625 99.3769802 16.8793992 99.3769802 17.9978182"></polygon>
                    <path d="M104.747067,12.2925534 L104.63513,12.2925534 L103.628332,14.9774545 L103.739953,15.0893913 L105.641929,15.0893913 L105.754182,14.9774545 L104.747067,12.2925534 Z M107.991652,18.1097866 L106.984221,18.1097866 L106.872917,17.9978498 L106.313233,16.5436206 L106.08936,16.4316838 L103.292522,16.4316838 L103.068964,16.5436206 L102.509913,17.9978498 L102.39766,18.1097866 L101.391178,18.1097866 L101.278925,17.9978498 L101.278925,16.8794308 L103.851889,10.3905771 L103.963826,10.2789565 L105.418055,10.2789565 L105.530308,10.3905771 L108.102957,16.8794308 L108.102957,17.9978498 L107.991652,18.1097866 Z" id="Fill-17" fill="#000000"></path>
                    <path d="M114.032822,14.7534862 L112.242783,14.7534862 L112.130846,14.8654229 L112.130846,16.6554625 L112.242783,16.7673992 L114.032822,16.7673992 C114.816379,16.7673992 115.151557,16.4315889 115.151557,15.7606008 C115.151557,15.0892964 114.816379,14.7534862 114.032822,14.7534862 M114.032822,11.6211542 L112.242783,11.6211542 L112.130846,11.7330909 L112.130846,13.2992569 L112.242783,13.4111937 L114.032822,13.4111937 C114.70381,13.4111937 114.927684,12.9637628 114.927684,12.516332 C114.927684,11.9566482 114.70381,11.6211542 114.032822,11.6211542 M114.480253,18.1096917 L110.676617,18.1096917 L110.56468,17.9977549 L110.56468,10.3904822 L110.676617,10.2788617 L114.256379,10.2788617 C115.375115,10.2788617 116.49385,10.8382292 116.49385,12.2924585 C116.49385,13.0753834 116.158356,13.7466877 115.375115,13.9705613 L115.375115,14.082498 C116.270292,14.3060553 116.717723,14.9773597 116.717723,15.9841581 C116.717723,17.5503241 115.598988,18.1096917 114.480253,18.1096917" id="Fill-19" fill="#000000"></path>
                    <path d="M122.199842,18.2216917 C119.962372,18.2216917 118.955573,17.1029565 118.955573,15.6487273 L119.06751,15.5367905 L120.410119,15.5367905 L120.522055,15.6487273 C120.522055,16.4316522 120.969486,16.8793992 122.311779,16.8793992 C123.318577,16.8793992 123.877945,16.5435889 123.877945,15.8722846 C123.877945,15.0893597 123.430514,14.8654862 121.864348,14.6419289 C120.298182,14.4180553 119.06751,13.8586877 119.06751,12.2925217 C119.06751,11.1737866 119.962372,10.1669881 122.088221,10.1669881 C124.213755,10.1669881 125.108617,11.1737866 125.108617,12.5163953 L124.99668,12.6280158 L123.654387,12.6280158 L123.542451,12.5163953 C123.542451,11.8450909 123.206957,11.5092806 121.976285,11.5092806 C120.969486,11.5092806 120.633676,11.8450909 120.633676,12.2925217 C120.633676,12.9638261 121.081107,13.1873834 122.647589,13.4112569 C124.213755,13.6351304 125.444111,14.3061186 125.444111,15.8722846 C125.444111,17.1029565 124.549249,18.2216917 122.199842,18.2216917" id="Fill-21" fill="#000000"></path>
                    <polygon id="Fill-23" fill="#000000" points="14.5919051 7.656 14.479336 7.54343083 10.8603636 7.54343083 10.7503241 7.65347036 10.7503241 19.7869091 10.6387036 19.8985296 8.54510672 19.8985296 8.44012648 20.0035099 8.44012648 21.3157628 8.55490909 21.4302292 12.1754625 21.4302292 12.2820237 21.323668 12.2820237 9.17821344 12.3854229 9.07513043 14.4859763 9.07513043 14.5919051 8.96888538"></polygon>
                    <polygon id="Fill-25" fill="#000000" points="16.2356364 7.54343083 17.5456759 7.54343083 17.6557154 7.65347036 17.6557154 19.7869091 17.767336 19.8985296 19.8609328 19.8985296 19.965913 20.0035099 19.965913 21.3157628 19.8511304 21.4302292 16.2308933 21.4302292 16.1240158 21.323668 16.1240158 7.65505138"></polygon>
                    <g id="Group-29" transform="translate(0.000000, 0.080000)">
                        <mask id="mask-2" fill="white">
                            <use xlink:href="#path-1"></use>
                        </mask>
                        <g id="Clip-28"></g>
                        <path d="M14.2690593,1.76632411 C7.24486957,1.76632411 1.53008696,7.48110672 1.53008696,14.5052964 C1.53008696,21.5298024 7.24486957,27.244585 14.2690593,27.244585 C21.2935652,27.244585 27.0083478,21.5298024 27.0083478,14.5052964 C27.0083478,7.48110672 21.2935652,1.76632411 14.2690593,1.76632411 M14.2690593,28.7747036 C6.4012332,28.7747036 -3.16205534e-05,22.3734387 -3.16205534e-05,14.5052964 C-3.16205534e-05,6.63747036 6.4012332,0.236205534 14.2690593,0.236205534 C22.1372016,0.236205534 28.5384664,6.63747036 28.5384664,14.5052964 C28.5384664,22.3734387 22.1372016,28.7747036 14.2690593,28.7747036" id="Fill-27" fill="#000000" mask="url(#mask-2)"></path>
                    </g>
                </g>
            </g>
        </g>
    </g>
</svg>