<svg width="107" height="20" viewBox="0 0 107 20" fill="none" xmlns="http://www.w3.org/2000/svg">
<path d="M32.3013 12.7937C32.3841 13.8277 32.8149 14.6483 33.577 15.272C34.339 15.8957 35.3331 16.2075 36.559 16.2075C37.6359 16.2075 38.4974 15.9777 39.1601 15.5182C39.8228 15.0586 40.1541 14.4185 40.1541 13.6143C40.1541 13.0399 39.9719 12.5639 39.6074 12.2357C39.2429 11.891 38.7625 11.6284 38.1329 11.4479C37.5034 11.2674 36.6419 11.0704 35.5153 10.8735C34.3722 10.6765 33.3947 10.4139 32.5829 10.0857C31.7711 9.75743 31.1084 9.26506 30.5949 8.60856C30.0813 7.93566 29.8328 7.0658 29.8328 5.98259C29.8328 4.98143 30.0978 4.09516 30.628 3.30737C31.1581 2.51958 31.8871 1.91232 32.848 1.4856C33.7923 1.05887 34.8858 0.829102 36.1117 0.829102C37.3708 0.829102 38.4974 1.05887 39.4914 1.53483C40.4854 1.99438 41.2641 2.63446 41.8274 3.45508C42.3907 4.2757 42.7054 5.19479 42.7551 6.24518H39.9056C39.8062 5.3425 39.4086 4.62036 38.7293 4.07875C38.0335 3.53714 37.172 3.25813 36.1117 3.25813C35.0846 3.25813 34.2728 3.47149 33.6598 3.91463C33.0468 4.35776 32.7486 4.98143 32.7486 5.76922C32.7486 6.32725 32.9308 6.78679 33.2953 7.11504C33.6598 7.44329 34.1402 7.68947 34.7367 7.87001C35.3331 8.03413 36.2111 8.21467 37.3377 8.41162C38.4808 8.60856 39.4583 8.87116 40.2866 9.21582C41.115 9.54407 41.7777 10.0364 42.3078 10.6929C42.8214 11.3494 43.0865 12.2029 43.0865 13.2697C43.0865 14.3037 42.8048 15.2227 42.2581 16.0434C41.7114 16.864 40.9328 17.4877 39.9387 17.9472C38.9447 18.4067 37.8181 18.6365 36.559 18.6365C35.1674 18.6365 33.9414 18.3903 32.8811 17.8816C31.8208 17.3892 30.9925 16.6835 30.3961 15.7972C29.7996 14.9109 29.5014 13.8933 29.4849 12.7445L32.3013 12.7937ZM46.1514 8.08337H43.9148V5.71999H46.1514V2.14209H48.9016V5.70358H51.9996V8.06696H48.9016V14.7304C48.9016 15.2227 49.001 15.5838 49.1998 15.7972C49.3986 16.0105 49.7465 16.109 50.2269 16.109H52.2978V18.4888H49.6802C48.4542 18.4888 47.5596 18.2098 46.9963 17.6354C46.4331 17.0773 46.1514 16.1911 46.1514 15.0094V8.08337ZM65.9989 5.71999V18.4888H63.6132L63.315 16.5357C62.8677 17.1758 62.2878 17.6682 61.5754 18.0621C60.863 18.4396 60.0512 18.6365 59.1069 18.6365C57.9307 18.6365 56.8869 18.3739 55.9592 17.8487C55.0314 17.3235 54.319 16.5686 53.7889 15.5838C53.2753 14.5991 53.0102 13.4338 53.0102 12.1044C53.0102 10.8078 53.2753 9.65896 53.8054 8.67421C54.3356 7.68947 55.0645 6.91809 55.9757 6.37648C56.9035 5.83487 57.9472 5.57228 59.0904 5.57228C60.0512 5.57228 60.8796 5.75281 61.5754 6.11388C62.2878 6.47496 62.8511 6.96733 63.2818 7.591L63.6132 5.71999H65.9989ZM62.2712 15.1899C62.9671 14.4021 63.2984 13.401 63.2984 12.1536C63.2984 10.8899 62.9505 9.8559 62.2712 9.06811C61.5754 8.2639 60.6808 7.87001 59.5542 7.87001C58.4277 7.87001 57.5165 8.2639 56.8372 9.0517C56.1414 9.83949 55.8101 10.8571 55.8101 12.1044C55.8101 13.3682 56.158 14.4021 56.8372 15.1899C57.533 15.9777 58.4277 16.3716 59.5542 16.3716C60.6808 16.3716 61.592 15.9777 62.2712 15.1899ZM78.623 17.3728C77.5793 18.2098 76.2539 18.6365 74.6138 18.6365C73.3381 18.6365 72.2115 18.3739 71.2341 17.8323C70.2566 17.2907 69.5111 16.5193 68.9809 15.5182C68.4508 14.517 68.1857 13.3682 68.1857 12.0716C68.1857 10.775 68.4508 9.64254 68.9975 8.6578C69.5277 7.67306 70.2897 6.91809 71.2838 6.37648C72.2612 5.83487 73.4044 5.57228 74.6966 5.57228C76.3036 5.57228 77.629 5.999 78.6562 6.83603C79.6833 7.67306 80.3129 8.82193 80.5779 10.2662H77.7781C77.5959 9.52766 77.2314 8.95322 76.6681 8.5265C76.1214 8.09978 75.4421 7.87001 74.6303 7.87001C73.5369 7.87001 72.6588 8.26391 71.9962 9.03529C71.3335 9.82308 71.0021 10.8242 71.0021 12.0716C71.0021 13.3353 71.3335 14.3693 71.9962 15.1571C72.6588 15.9449 73.5369 16.3388 74.6303 16.3388C75.4753 16.3388 76.1711 16.1254 76.7178 15.6823C77.2645 15.2392 77.629 14.6483 77.7947 13.8933H80.5614C80.3129 15.3869 79.6502 16.5357 78.623 17.3728ZM82.7482 1.02605H85.4652V11.9567L91.3632 5.71999H94.5109L89.7064 10.8571L94.8257 18.4888H91.5951L87.7681 12.8265L85.4818 15.2227V18.4888H82.7648V1.02605H82.7482ZM97.9237 14.2708C97.9734 14.9437 98.2882 15.4853 98.8681 15.9121C99.4479 16.3388 100.193 16.5522 101.121 16.5522C101.95 16.5522 102.612 16.4044 103.126 16.0926C103.639 15.7808 103.888 15.3705 103.888 14.8617C103.888 14.435 103.772 14.1067 103.54 13.8933C103.308 13.68 102.993 13.5159 102.596 13.4338C102.198 13.3353 101.585 13.2533 100.773 13.1548C99.6467 13.0235 98.719 12.843 97.99 12.6132C97.2611 12.3834 96.6646 12.0387 96.2339 11.5464C95.7866 11.054 95.5712 10.3975 95.5712 9.56048C95.5712 8.77269 95.7866 8.08337 96.2339 7.47611C96.6812 6.86885 97.2942 6.39289 98.0728 6.06465C98.8515 5.7364 99.7461 5.57228 100.724 5.57228C102.347 5.57228 103.673 5.93335 104.683 6.63908C105.694 7.36122 106.24 8.36238 106.34 9.65896H103.689C103.623 9.08452 103.325 8.59215 102.811 8.23108C102.297 7.8536 101.635 7.67306 100.84 7.67306C100.044 7.67306 99.4148 7.82077 98.9178 8.11619C98.4373 8.41162 98.1888 8.82193 98.1888 9.33071C98.1888 9.70819 98.3048 10.0036 98.5533 10.1842C98.8018 10.3811 99.1 10.5124 99.4645 10.578C99.829 10.6601 100.425 10.7422 101.254 10.8406C102.364 10.9555 103.291 11.1361 104.054 11.3823C104.816 11.6284 105.412 12.0059 105.859 12.5311C106.307 13.0563 106.539 13.762 106.539 14.6647C106.539 15.4689 106.307 16.1583 105.826 16.7655C105.362 17.3728 104.716 17.8323 103.888 18.1606C103.06 18.4888 102.148 18.6529 101.121 18.6529C99.3982 18.6529 97.99 18.259 96.9297 17.4877C95.8694 16.7163 95.3061 15.6495 95.273 14.2872H97.9237V14.2708Z" fill="#080808"/>
<path d="M13.9056 13.5684L18.1545 20H14.9804L9.99253 12.4433L5.00466 20H1.84736L6.09628 13.5852H0V11.1503H20.0019V13.5684H13.9056Z" fill="#080808"/>
<path d="M20.0019 6.34761V8.78254V8.79933H0V6.34761H5.97872L1.78018 0H4.95428L9.99253 7.65743L15.0476 0H18.2217L14.0231 6.34761H20.0019Z" fill="#080808"/>
</svg>
