<svg width="140" height="40" viewBox="0 0 140 40" fill="none" xmlns="http://www.w3.org/2000/svg">
<path fill-rule="evenodd" clip-rule="evenodd" d="M33.7228 21.0677C33.6092 21.1252 33.5106 21.2019 33.4077 21.2748C33.3192 21.3375 33.1999 21.3442 33.0906 21.3633C33.057 21.3691 32.9997 21.3661 32.9995 21.3961C32.9978 21.5231 32.9384 21.6475 32.9556 21.7616C32.9705 21.863 33.0129 21.9552 32.9354 22.068C32.9926 22.0445 33.0236 22.032 33.0542 22.0193C33.2312 21.9446 33.3597 21.9788 33.4955 22.1349C33.5386 22.184 33.5616 22.2294 33.5069 22.2775C33.4568 22.3214 33.4781 22.3646 33.5155 22.4114C33.5513 22.4557 33.5853 22.5022 33.6154 22.5504C33.6404 22.5903 33.6563 22.6536 33.618 22.6697C33.5252 22.7087 33.5498 22.7804 33.5582 22.8531C33.5614 22.8807 33.5627 22.9124 33.5371 22.9279C33.508 22.9453 33.485 22.921 33.4669 22.899C33.4208 22.8428 33.3821 22.8456 33.3472 22.9014C33.3056 22.967 33.2591 22.9444 33.2135 22.8968C33.1466 22.8273 33.1033 22.7496 33.0934 22.651C33.0815 22.5349 33.0318 22.4904 32.9141 22.4678C32.9298 22.4986 32.9455 22.5268 32.9591 22.556C32.9974 22.6389 33.0645 22.7257 32.9229 22.7681C32.8766 22.7821 32.8938 22.8396 32.9175 22.8717C33.0021 22.986 32.9111 23.0331 32.8486 23.0723C32.7782 23.116 32.6971 23.099 32.6501 23.0079C32.615 22.9401 32.5778 22.9085 32.516 22.9629C32.4588 23.0131 32.4385 22.97 32.4181 22.9188C32.3783 22.8174 32.3434 22.7158 32.3711 22.5991C32.3152 22.6178 32.2741 22.6363 32.2301 22.6454C32.1589 22.6602 32.0962 22.6258 32.087 22.5537C32.0719 22.4376 32.0838 22.3259 32.2011 22.2652C32.2504 22.2396 32.3044 22.2161 32.3393 22.1685C32.3636 22.1356 32.3711 22.0988 32.3494 22.0581C32.332 22.0251 32.3016 22.0047 32.2713 22.0182C32.189 22.0544 32.1531 22.0101 32.1234 21.9369C32.1135 21.9128 32.0934 21.8833 32.0607 21.8886C32.0248 21.8942 32.0383 21.9315 32.0304 21.9554C32.0011 22.0411 31.9923 22.1384 31.909 22.1937C31.861 22.2258 31.8932 22.2568 31.9212 22.2908C32.079 22.4824 32.0678 22.6051 31.8831 22.7274C31.8584 22.7438 31.8224 22.7556 31.8343 22.7952C31.8485 22.8432 31.8894 22.8366 31.923 22.8305C32.0844 22.8004 32.2028 22.873 32.2962 23.0112C32.3191 23.0452 32.3432 23.079 32.3714 23.108C32.4394 23.1787 32.428 23.2299 32.3597 23.2837C32.2743 23.3507 32.2743 23.398 32.3679 23.4697C32.4749 23.5518 32.5789 23.6336 32.6514 23.7509C32.6631 23.7696 32.687 23.7851 32.708 23.7929C32.7393 23.8045 32.7774 23.8144 32.7703 23.8525C32.7619 23.8962 32.7184 23.9091 32.6781 23.8982C32.6176 23.8818 32.5571 23.8601 32.499 23.8338C32.3135 23.7494 32.1331 23.6545 31.9862 23.4891C31.9772 23.5137 31.9714 23.5233 31.9699 23.5341C31.9456 23.7083 31.8364 23.752 31.6945 23.6446C31.6655 23.6224 31.6369 23.5987 31.6048 23.5828C31.4143 23.4857 31.3719 23.364 31.476 23.1875C31.5118 23.1268 31.4948 23.0917 31.4351 23.0671C31.3365 23.0265 31.2545 22.9578 31.1813 22.8826C31.1252 22.8241 31.0881 22.8342 31.0326 22.8674C30.8403 22.9817 30.6673 23.1218 30.491 23.2577C30.4203 23.3124 30.3252 23.2519 30.2542 23.3035C30.2415 23.3128 30.2148 23.276 30.2109 23.2527C30.1906 23.1319 30.2212 23.0021 30.1192 22.8958C30.1116 22.888 30.134 22.8544 30.1368 22.8316C30.1424 22.7864 30.1319 22.741 30.0918 22.7136C30.0499 22.6848 30.0329 22.7261 30.0083 22.7481C29.9261 22.8213 29.7567 22.8308 29.6512 22.7666C29.5922 22.7304 29.5379 22.7037 29.4826 22.7584C29.4622 22.7782 29.4344 22.7907 29.4114 22.7623C29.3113 22.6409 29.1548 22.6019 29.0488 22.4876C29.0077 22.443 28.958 22.3821 28.8865 22.4269C28.8228 22.4669 28.8706 22.5259 28.8758 22.5776C28.8833 22.6501 28.9399 22.7455 28.8069 22.7524C28.7817 22.7537 28.7802 22.7763 28.7877 22.7972C28.8239 22.8953 28.901 22.9879 28.8478 23.0979C28.9518 23.2252 28.8512 23.3231 28.8245 23.4303C28.8058 23.5055 28.7544 23.5223 28.6814 23.485C28.5733 23.4295 28.4614 23.4263 28.3483 23.4364C28.0183 23.4656 27.6887 23.496 27.3581 23.5216C27.2591 23.5296 27.2201 23.5615 27.2871 23.6598C27.359 23.7653 27.2933 23.8545 27.2461 23.9147C27.1994 23.9744 27.0972 23.9557 27.0188 23.9091C26.9661 23.8779 26.9161 23.8411 26.8582 23.8026C26.866 23.8967 26.8765 23.969 26.9463 24.0323C27.0173 24.0967 26.9486 24.1477 26.9142 24.1916C26.8739 24.2426 26.8386 24.1942 26.8087 24.1638C26.7543 24.1089 26.7054 24.048 26.649 23.9955C26.5224 23.8775 26.4146 23.7546 26.4453 23.5677C26.4539 23.5158 26.4214 23.5197 26.3868 23.5317C26.2645 23.5757 26.1478 23.6291 26.0585 23.7266C25.9136 23.8846 25.8286 23.896 25.6344 23.7789C25.5827 23.7475 25.5367 23.7051 25.4839 23.6766C25.3759 23.6185 25.251 23.5692 25.1442 23.6017C24.6883 23.7408 24.2104 23.7686 23.7342 23.8049C23.5676 23.8174 23.4214 23.8663 23.2886 23.9595C23.1456 24.0594 22.9659 24.0497 22.8135 23.9389C22.7721 23.9089 22.7278 23.8952 22.68 23.8954C22.6727 23.8956 22.6654 23.8962 22.658 23.8962C22.8669 24.3604 24.0102 24.74 23.647 25.1641C23.5964 25.2235 23.5396 25.2706 23.5036 25.3466C23.3904 25.5863 23.2823 25.8183 22.9674 25.8842C22.7988 25.9193 22.663 26.0689 22.7601 26.2894C22.4393 26.4087 24.7488 26.7704 24.5701 26.979C24.4943 27.0675 24.4599 27.1549 24.448 27.2447L27.9518 28.1532L28.4002 28.6016C29.4755 28.7009 30.5461 28.8158 31.6115 28.9478C30.7609 30.0973 29.7724 31.175 28.6465 32.1785C25.0803 35.3562 21.0945 36.9502 19.1902 37.6774C17.3466 36.9112 13.1423 35.1469 9.50466 31.8062C8.50903 30.8921 7.62404 29.9229 6.84841 28.9013C7.80121 28.787 8.75788 28.6867 9.71843 28.5984L10.8389 27.4776L16.9253 26.0085C17.0459 25.8786 17.2164 25.8078 17.4543 25.8625C17.6973 25.9187 18.1608 25.4958 18.2385 25.1628C18.2915 24.9363 18.4178 24.8073 18.6163 24.7232C19.0951 24.5201 20.3424 24.1578 20.617 23.7378C20.8547 23.375 20.8231 22.8992 20.3458 22.7477C20.0875 22.6656 19.8881 22.4714 19.6916 22.2762C19.4905 22.0766 19.3129 21.7784 18.9254 21.9502C18.8406 21.9877 18.683 21.9044 18.5778 21.8439C18.1651 21.607 17.6629 21.4865 17.4482 20.9836C17.4149 20.9054 17.3404 20.826 17.2648 20.7879C16.7387 20.5239 16.2115 20.2608 15.6752 20.0191C15.5 19.94 15.3138 19.8897 15.1668 19.7566C15.0985 19.695 15.0258 19.6371 14.9201 19.6998C14.9231 19.8328 15.0561 19.8281 15.125 19.8877C15.2363 19.9835 15.2697 20.0804 15.1857 20.2122C15.0987 20.3484 14.9728 20.3779 14.8744 20.2688C14.5093 19.8636 14.1091 19.8998 13.6543 20.0473C13.6215 20.0186 13.5884 19.99 13.5554 19.9614C13.5455 20.215 13.5365 20.4686 13.5264 20.7224C13.5229 20.7241 13.5201 20.7224 13.5167 20.7248C13.4653 20.7599 13.4125 20.773 13.354 20.7526C13.3109 20.7377 13.265 20.7345 13.2201 20.7332C13.1139 20.7304 13.0162 20.6914 12.9264 20.6167C12.8722 20.5717 12.8149 20.5409 12.7512 20.5276C12.7163 20.5205 12.673 20.5172 12.6535 20.475C12.5953 20.3504 12.5013 20.3045 12.4083 20.2492C12.2879 20.1775 12.2451 20.1814 12.1695 20.328C12.0731 20.5155 11.9282 20.6229 11.7993 20.7571C11.7633 20.7945 11.7246 20.7947 11.6886 20.7526C11.6634 20.7237 11.6382 20.7073 11.6025 20.725C11.4699 20.7915 11.331 20.8038 11.1911 20.8029C11.0818 20.8023 10.9801 20.8453 10.8807 20.9017C10.8542 20.9168 10.8452 20.9435 10.8432 20.9799C10.84 21.0445 10.8249 21.1035 10.7939 21.1545C10.7799 21.1778 10.7647 21.1984 10.7446 21.17C10.7175 21.1315 10.702 21.1506 10.6792 21.1797C10.6564 21.2092 10.6125 21.2309 10.6006 21.1812C10.583 21.1069 10.5025 21.057 10.5474 20.9556C10.5518 20.9455 10.5416 20.9216 10.5358 20.9056C10.5225 20.8677 10.5212 20.8285 10.5335 20.7917C10.5492 20.7461 10.5474 20.6979 10.5539 20.6509C10.5662 20.564 10.5365 20.5749 10.4969 20.5997C10.4256 20.6443 10.3496 20.6791 10.2848 20.7373C10.2155 20.7995 10.1569 20.7803 10.0921 20.7347C10.1079 20.702 10.133 20.7093 10.1535 20.7009C10.2204 20.6735 10.2786 20.5857 10.2663 20.517C10.2497 20.4223 10.2194 20.3299 10.2846 20.2204C10.2549 20.2356 10.2482 20.2374 10.2428 20.2419C10.1335 20.3394 10.1038 20.3239 10.0799 20.1521C10.0743 20.1116 10.0605 20.0923 10.0308 20.0776C9.94188 20.0346 9.85534 19.9835 9.7815 19.9021C9.73048 19.846 9.67516 19.8378 9.62931 19.8991C9.57183 19.9764 9.48873 19.9375 9.42846 19.9952C9.41231 20.0104 9.40241 19.985 9.39487 19.9648C9.35849 19.869 9.40262 19.8287 9.47151 19.7962C9.43771 19.7859 9.41188 19.8135 9.39552 19.7855C9.36603 19.7359 9.32448 19.74 9.28509 19.7323C9.19209 19.7142 9.19295 19.7138 9.20759 19.8378C9.21727 19.9192 9.21426 19.9967 9.18477 20.075C9.15915 20.1424 9.12191 20.171 9.07089 20.184C9.06163 20.1861 9.05001 20.1947 9.05151 20.2154C9.14666 20.1629 9.07606 20.2802 9.1006 20.3007C9.12234 20.2393 9.16281 20.2079 9.24526 20.1859C9.27798 20.1773 9.3092 20.1749 9.32922 20.2184C9.35053 20.2647 9.31824 20.289 9.30317 20.3198C9.28939 20.3484 9.25279 20.3644 9.26614 20.4081C9.28595 20.4722 9.26442 20.5155 9.22438 20.5271C9.18305 20.5394 9.1542 20.497 9.14322 20.4419C9.1303 20.3769 9.09651 20.3523 9.04247 20.3433C9.05797 20.3827 9.064 20.4178 9.04742 20.4496C9.01772 20.5065 9.06335 20.5429 9.07261 20.5857C9.08015 20.6204 9.11567 20.5691 9.13978 20.5605C9.15011 20.5566 9.16001 20.5454 9.17142 20.5609C9.17314 20.6055 9.14559 20.6195 9.12363 20.6378C9.05926 20.6923 9.05517 20.7562 9.11351 20.8268C9.14839 20.869 9.18412 20.9104 9.21814 20.9534C9.24504 20.9872 9.27863 21.0378 9.25925 21.077C9.22675 21.142 9.25107 21.1881 9.26399 21.2426C9.26808 21.2606 9.27906 21.2843 9.26356 21.3015C9.24913 21.3175 9.23277 21.3048 9.21986 21.2942C9.17336 21.2568 9.12772 21.2178 9.08165 21.1795C9.09242 21.2178 9.11028 21.2447 9.12535 21.2742C9.13784 21.2979 9.15872 21.3263 9.14128 21.3543C9.12557 21.3797 9.1034 21.3547 9.08596 21.3444C9.0147 21.302 8.954 21.2419 8.91029 21.153C8.89264 21.117 8.87585 21.0776 8.82612 21.0563C8.85605 21.1142 8.87779 21.1549 8.89846 21.1967C8.92084 21.2423 8.94129 21.2893 8.94173 21.3463C8.94216 21.4006 8.94732 21.4626 8.909 21.4953C8.87219 21.527 8.83624 21.4893 8.80223 21.4667C8.79211 21.4596 8.78307 21.4505 8.77338 21.4441C8.75508 21.4322 8.74346 21.438 8.73958 21.4671C8.7187 21.6361 8.66919 21.7814 8.55337 21.8727C8.5411 21.8824 8.53507 21.9138 8.51635 21.8973C8.50171 21.8839 8.50214 21.8559 8.50967 21.8387C8.54993 21.7446 8.4776 21.6671 8.48922 21.5773C8.49116 21.5631 8.47674 21.5534 8.46554 21.5502C8.42593 21.5394 8.38568 21.5347 8.36802 21.5967C8.33724 21.7061 8.29483 21.7997 8.21346 21.8557C8.19171 21.8706 8.18246 21.9214 8.14888 21.9031C8.11874 21.8867 8.09463 21.8587 8.0957 21.8083C8.09699 21.7543 8.07375 21.7341 8.03758 21.7287C8.01368 21.725 7.9857 21.73 7.97816 21.6858C7.97085 21.643 7.98247 21.6088 8.00723 21.5821C8.03995 21.5472 8.07288 21.5127 8.11314 21.4705C8.06901 21.449 8.03112 21.4374 8.00271 21.4025C7.98656 21.3825 7.96094 21.3575 7.97687 21.3282C8.00357 21.2796 8.01928 21.224 8.06018 21.1818C8.09592 21.1452 8.20334 21.133 8.13919 21.0047C8.13639 20.9988 8.14586 20.9831 8.14758 20.9717C8.15297 20.9293 8.1407 20.9015 8.10862 20.8912C8.06492 20.8772 8.021 20.8641 7.97752 20.8486C7.91487 20.8266 7.89916 20.778 7.93016 20.7005C7.93855 20.6796 7.95212 20.6628 7.96245 20.643C7.99044 20.5894 7.99582 20.5448 7.93877 20.5183C7.88754 20.4948 7.87182 20.4427 7.88301 20.3739C7.88689 20.3502 7.89421 20.3192 7.87569 20.3075C7.7954 20.257 7.71553 20.1678 7.62555 20.2029C7.55494 20.2307 7.5192 20.1988 7.48088 20.1409C7.47098 20.1263 7.46797 20.1034 7.46216 20.0845C7.44644 20.035 7.41437 20.0107 7.37949 19.9997C7.34526 19.9889 7.35344 20.0371 7.34397 20.0608C7.34117 20.0679 7.33407 20.078 7.32976 20.0772C7.26454 20.0649 7.20447 20.1265 7.13386 20.0858C7.01331 20.0169 7.00815 20.0259 6.92096 20.1607C6.89297 20.204 6.88006 20.255 6.87618 20.3093C6.86929 20.4098 6.8271 20.4542 6.75542 20.4703C6.6904 20.4849 6.62927 20.455 6.54617 20.4479C6.60795 20.4888 6.65187 20.5185 6.69622 20.5465C6.77307 20.5952 6.83959 20.6438 6.84841 20.7836C6.85358 20.8619 6.837 20.8705 6.79309 20.8763C6.75111 20.8824 6.7143 20.8473 6.66522 20.8408C6.6833 20.8886 6.69837 20.9222 6.70849 20.9584C6.72334 21.0113 6.73023 21.08 6.6889 21.1026C6.64886 21.1246 6.63508 21.1573 6.61893 21.2006C6.59439 21.2645 6.56511 21.2695 6.53132 21.2159C6.4818 21.1371 6.43423 21.055 6.42885 20.9467C6.42691 20.9129 6.41851 20.9011 6.39419 20.8942C6.28009 20.863 6.28031 20.8619 6.27407 20.7026C6.2732 20.6854 6.27105 20.6684 6.26976 20.6496C6.15158 20.7149 6.15222 20.7153 6.1716 20.8744C6.18365 20.9745 6.16923 21.0718 6.15136 21.1694C6.13823 21.2395 6.11713 21.1864 6.0969 21.1745C6.09496 21.218 6.0941 21.254 6.09173 21.2899C6.08979 21.3233 6.0885 21.3603 6.05363 21.3603C6.02263 21.3605 6.0209 21.3267 6.01703 21.2968C6.00519 21.2139 6.00497 21.131 6.01961 21.0434C5.99098 21.0921 5.95589 21.1177 5.91865 21.0828C5.88356 21.0499 5.8982 20.9956 5.9053 20.9485C5.91413 20.8888 5.93135 20.8333 5.95331 20.7801C5.96278 20.7566 5.97591 20.7334 5.96257 20.7048C5.93932 20.6552 5.96558 20.6223 5.9884 20.5965C6.02069 20.5599 6.05793 20.5306 6.0941 20.5004C6.13586 20.466 6.17224 20.4262 6.19635 20.3624C6.09969 20.3672 6.01036 20.4152 5.93393 20.4998C5.87646 20.5637 5.82824 20.6389 5.7869 20.7226C5.77592 20.7452 5.75504 20.7896 5.7389 20.7422C5.71974 20.6856 5.70209 20.7112 5.67668 20.7222C5.63987 20.7381 5.60414 20.7405 5.56646 20.7116C5.54042 20.6916 5.50705 20.6867 5.47626 20.6798C5.43235 20.6697 5.40587 20.6951 5.4063 20.7575C5.40673 20.8552 5.36217 20.8811 5.30039 20.8789C5.26293 20.8776 5.22483 20.8815 5.19081 20.8524C5.17919 20.8834 5.21126 20.92 5.17768 20.9366C5.15099 20.9495 5.13721 20.92 5.12106 20.9C5.08963 20.8611 5.05411 20.8268 5.02828 20.7823C4.98975 20.7164 4.95681 20.7224 4.91763 20.7773C4.87307 20.84 4.81839 20.8692 4.75316 20.8565C4.72733 20.8514 4.70731 20.841 4.7043 20.7969C4.69073 20.5935 4.76091 20.4684 4.91182 20.432C5.03173 20.4029 5.03517 20.3975 5.03323 20.2335C5.03194 20.1405 5.00439 20.1071 4.9284 20.0979C4.85951 20.0895 4.86855 20.1553 4.86381 20.2109C4.86231 20.2315 4.85671 20.252 4.85197 20.272C4.81322 20.4322 4.73939 20.4628 4.63864 20.3603C4.59494 20.3159 4.55748 20.2737 4.51916 20.3764C4.50409 20.4173 4.45824 20.4421 4.41841 20.4335C4.37859 20.4249 4.44532 20.3859 4.41088 20.3672C4.36287 20.3924 4.34867 20.483 4.30432 20.4966C4.22445 20.5207 4.18915 20.6008 4.14179 20.671C4.12134 20.7017 4.09637 20.7562 4.06063 20.7315C4.02985 20.7101 4.02296 20.7323 4.00595 20.75C3.95967 20.7975 3.91209 20.8419 3.85935 20.8929C3.85311 20.8337 3.87593 20.8096 3.8897 20.7799C3.89638 20.765 3.90865 20.7375 3.90585 20.7343C3.85957 20.6781 3.90693 20.6376 3.91791 20.5922C3.92522 20.5607 3.94718 20.5258 3.9418 20.5C3.92458 20.4143 3.96613 20.3723 4.00186 20.323C4.06558 20.2341 4.142 20.1738 4.23005 20.139C4.25352 20.1297 4.27763 20.1183 4.29786 20.1009C4.35556 20.0513 4.37084 19.9637 4.37127 19.8871C4.37127 19.8244 4.30798 19.838 4.27138 19.8253C4.23156 19.8115 4.2124 19.7865 4.24103 19.7385C4.2744 19.6821 4.24813 19.6694 4.21477 19.6533C4.1011 19.5988 3.98873 19.6221 3.87657 19.6625C3.79477 19.6918 3.71899 19.7491 3.63375 19.7654V19.7471C3.65247 19.6918 3.73019 19.6901 3.70888 19.5979C3.76377 19.6292 3.88777 19.615 3.89444 19.5676C3.90327 19.5049 3.92695 19.5002 3.9672 19.5082C3.9108 19.4453 3.91338 19.3835 3.97 19.3415C3.99777 19.3211 4.02813 19.3069 4.05999 19.3058C4.17817 19.3019 4.28322 19.2175 4.40055 19.2061C4.42337 19.2037 4.44984 19.1857 4.44382 19.1499C4.43585 19.1017 4.40765 19.1327 4.38871 19.1379C4.36912 19.1435 4.35017 19.1542 4.33123 19.1641C4.218 19.2238 4.10498 19.284 4.01241 19.1127C4.01112 19.1105 4.00875 19.1094 4.00681 19.1082C3.96613 19.0791 3.96225 19.0584 4.00875 19.0261C4.03846 19.005 4.07075 18.9618 4.06278 18.9116C4.05396 18.8565 4.01047 18.8539 3.97431 18.8481C3.8826 18.8339 3.829 18.7346 3.84019 18.5921C3.877 18.6222 3.91511 18.6311 3.93771 18.5727C3.96182 18.5103 3.94654 18.455 3.89207 18.4005C3.9939 18.4054 4.04922 18.323 4.10562 18.2511C4.12995 18.286 4.10369 18.306 4.10928 18.3273C4.11144 18.3363 4.12306 18.3417 4.13059 18.3475C4.13146 18.348 4.13748 18.34 4.13684 18.3385C4.11962 18.2881 4.13856 18.2601 4.17257 18.2552C4.21326 18.2489 4.19432 18.1878 4.22144 18.1731C4.26729 18.1484 4.31207 18.1131 4.35965 18.1036C4.40055 18.0956 4.41906 18.0778 4.42638 18.0261C4.43241 17.9852 4.45716 17.9742 4.48343 17.9835C4.50732 17.9919 4.5295 17.9962 4.53402 18.0491C4.54004 18.1217 4.51313 18.1813 4.50409 18.2554C4.55016 18.205 4.58956 18.272 4.63218 18.2474C4.6705 18.2255 4.70753 18.2433 4.73013 18.2963C4.7579 18.3615 4.78201 18.3467 4.80784 18.2916C4.87027 18.1579 4.96693 18.0926 5.07672 18.0534C5.106 18.0429 5.12925 18.0425 5.12128 18.0948C5.11375 18.1437 5.1032 18.1837 5.16154 18.1781C5.18134 18.1762 5.17467 18.2102 5.16649 18.2285C5.15529 18.2532 5.13484 18.2612 5.11697 18.2739C4.97834 18.374 4.8453 18.487 4.71937 18.6143C4.67868 18.6552 4.66749 18.6948 4.71463 18.74C4.73573 18.723 4.70494 18.6709 4.73809 18.6681C4.765 18.6657 4.77878 18.7008 4.79234 18.729C4.81064 18.7674 4.81602 18.8175 4.84659 18.8511C4.86295 18.8119 4.86489 18.7757 4.86618 18.7402C4.87135 18.6113 4.88426 18.5872 4.97489 18.5473C4.98975 18.5409 5.00525 18.5327 5.02053 18.5314C5.08425 18.5258 5.12128 18.4797 5.14453 18.4018C5.16111 18.346 5.18737 18.2952 5.22203 18.2554C5.28381 18.1848 5.35873 18.2121 5.37745 18.3174C5.38908 18.3818 5.40652 18.3688 5.4373 18.3452C5.5176 18.2842 5.55484 18.3073 5.58713 18.4188C5.59294 18.4403 5.5613 18.4892 5.60586 18.4845C5.62975 18.4819 5.65494 18.4705 5.67281 18.4453C5.69154 18.419 5.6967 18.3794 5.66506 18.3781C5.59423 18.3755 5.56022 18.2911 5.5021 18.2631C5.48358 18.2543 5.47088 18.2418 5.47605 18.2102C5.48143 18.1803 5.48337 18.1449 5.51092 18.1415C5.54192 18.1378 5.55742 18.1129 5.57572 18.0851C5.59811 18.0513 5.63212 18.0442 5.66312 18.0515C5.72964 18.067 5.7953 18.0896 5.84632 18.1564C5.86031 18.1744 5.8743 18.2054 5.89648 18.1891C5.9208 18.1714 5.92339 18.1359 5.91736 18.1012C5.90509 18.0308 5.89325 17.96 5.87947 17.8903C5.86785 17.8311 5.87473 17.7897 5.9264 17.7779C5.9419 17.7742 5.96709 17.7746 5.9658 17.7404C5.9645 17.709 5.94362 17.6978 5.92446 17.6877C5.87689 17.6625 5.82651 17.6739 5.77765 17.6676C5.74062 17.6627 5.69843 17.6741 5.6713 17.6272C5.6431 17.5774 5.66893 17.5096 5.64181 17.456C5.6332 17.439 5.65602 17.4308 5.66958 17.4369C5.72232 17.4599 5.77033 17.4603 5.82049 17.4164C5.84783 17.3923 5.88593 17.3996 5.918 17.4214C5.94922 17.4429 5.98323 17.4431 6.01703 17.4416C6.03425 17.4407 6.05621 17.4468 6.06224 17.4162C6.06783 17.3873 6.04824 17.3733 6.03404 17.3604C5.98409 17.3152 5.93953 17.2597 5.88098 17.2302C5.84266 17.2108 5.80671 17.1781 5.79573 17.1072C5.84287 17.1113 5.88205 17.1718 5.92425 17.1189C5.92855 17.1288 5.93092 17.1421 5.93716 17.1475C5.96127 17.1682 5.99034 17.1563 6.01014 17.1432C6.03231 17.1288 6.01036 17.1008 6.00045 17.084C5.93673 16.9757 5.85019 16.927 5.75052 16.9087C5.59294 16.8797 5.43644 16.921 5.27929 16.9143C5.25712 16.9135 5.22353 16.9331 5.21944 16.8844C5.216 16.8463 5.24033 16.8284 5.26767 16.8226C5.28101 16.82 5.29393 16.8132 5.30728 16.8112C5.33375 16.8073 5.34861 16.8026 5.36066 16.7563C5.38886 16.6459 5.48035 16.6086 5.56065 16.6601C5.61146 16.693 5.66205 16.6885 5.70811 16.6478C5.81833 16.5503 5.97225 16.6379 5.99163 16.8121C5.9955 16.8476 5.99593 16.884 5.9983 16.9202C6.00196 16.9794 6.03145 17.0317 6.06805 17.0235C6.14576 17.0063 6.17203 17.0999 6.22219 17.1372C6.24328 17.1527 6.245 17.1535 6.25727 17.1367C6.3027 17.0734 6.36383 17.0502 6.42239 17.0205C6.44219 17.0106 6.46889 16.9931 6.4818 17.03C6.49321 17.0631 6.47987 17.0969 6.45791 17.1163C6.42045 17.1497 6.38235 17.1809 6.33865 17.1996C6.28763 17.2216 6.23941 17.2631 6.22757 17.3327C6.2196 17.3802 6.21357 17.4244 6.18946 17.4635C6.26847 17.4203 6.27536 17.2838 6.35286 17.2381C6.37847 17.3419 6.40818 17.4293 6.50312 17.431C6.54509 17.4319 6.58707 17.4483 6.62905 17.4601C6.64476 17.4646 6.66522 17.4679 6.66285 17.5105C6.63336 17.5064 6.60451 17.5047 6.57631 17.4986C6.48977 17.4795 6.40344 17.4603 6.31497 17.4704C6.28268 17.4743 6.25254 17.484 6.22972 17.5169C6.21271 17.5415 6.21293 17.5729 6.21831 17.6026C6.22391 17.6317 6.24285 17.6259 6.25749 17.6201C6.36017 17.5817 6.46028 17.5585 6.54574 17.6885C6.42756 17.7665 6.28784 17.7124 6.16277 17.774C6.16944 17.7884 6.17095 17.7955 6.17396 17.7977C6.21508 17.8233 6.29731 17.8323 6.19764 17.9111C6.18602 17.9202 6.18645 17.9365 6.19764 17.9484C6.20841 17.9596 6.22541 17.9725 6.23381 17.9561C6.26029 17.9036 6.30054 17.9191 6.33671 17.909C6.37847 17.8974 6.4211 17.8791 6.44521 17.827C6.48374 17.7436 6.54509 17.704 6.61011 17.6847C6.64455 17.6741 6.6706 17.6562 6.70074 17.6334C6.66672 17.5932 6.63443 17.6524 6.603 17.6267C6.66349 17.5428 6.74917 17.5281 6.77221 17.6018C6.79869 17.6872 6.84518 17.7077 6.90524 17.7105C6.9694 17.7137 6.98769 17.7538 6.95777 17.8233C7.12439 17.8547 7.13494 17.8689 7.22945 17.6941C7.2387 17.6771 7.24731 17.6592 7.25765 17.6437C7.27982 17.611 7.30651 17.5837 7.3401 17.6028C7.37325 17.6218 7.3754 17.6644 7.37863 17.7094C7.38616 17.8207 7.35258 17.9114 7.30501 17.9981C7.34139 17.9861 7.36012 17.9523 7.37906 17.9189C7.44149 17.8084 7.45311 17.8102 7.51016 17.9221C7.53169 17.9639 7.55924 18.0078 7.6023 17.9977C7.64923 17.9867 7.68776 17.9381 7.70326 17.8877C7.71446 17.8517 7.69099 17.7559 7.67485 17.7523C7.56527 17.7275 7.62555 17.6513 7.64062 17.588C7.64772 17.5583 7.68281 17.5355 7.64514 17.4971C7.61414 17.4653 7.59175 17.4095 7.54417 17.453C7.50887 17.4851 7.47335 17.5172 7.43998 17.5527C7.41049 17.5837 7.38681 17.5755 7.36335 17.5432C7.33622 17.5057 7.35624 17.4793 7.37411 17.4504C7.38595 17.4313 7.41329 17.4306 7.41178 17.3944C7.24538 17.3288 7.08737 17.3559 6.93474 17.4595C6.88673 17.4922 6.83765 17.5232 6.78017 17.4958C6.74271 17.478 6.72721 17.4539 6.74982 17.4033C6.76467 17.3699 6.77845 17.3359 6.7961 17.2945C6.6777 17.3548 6.6777 17.3548 6.62927 17.3036C6.6495 17.2752 6.67792 17.2728 6.7031 17.2642C6.73755 17.2528 6.76769 17.2381 6.78017 17.188C6.79718 17.1195 6.83184 17.1072 6.88393 17.1115C6.93538 17.1163 6.99717 17.1189 7.03226 17.0536C7.0794 16.966 7.12461 16.8758 7.16551 16.7815C7.1922 16.7199 7.19974 16.681 7.14269 16.65C7.12655 16.6411 7.10071 16.6308 7.10997 16.5931C7.11772 16.561 7.14161 16.5677 7.15991 16.5585C7.20534 16.5352 7.24516 16.5944 7.30307 16.5673C7.19694 16.4704 7.11062 16.3587 6.98791 16.3225C7.03462 16.2876 7.07423 16.3049 7.11363 16.3283C7.14635 16.3477 7.17864 16.3701 7.21567 16.3716C7.23031 16.372 7.24344 16.3654 7.24753 16.3455C7.25248 16.321 7.23827 16.3156 7.22471 16.3104C7.21352 16.3064 7.20254 16.3018 7.2062 16.2754C7.24129 16.2592 7.27056 16.2629 7.30092 16.3044C7.33859 16.3567 7.41932 16.3438 7.42534 16.4495C7.42577 16.4577 7.43998 16.4525 7.44795 16.4437C7.4811 16.4067 7.47679 16.4519 7.48175 16.473C7.49036 16.5094 7.45656 16.5178 7.45139 16.5483C7.51554 16.5697 7.50435 16.5165 7.49983 16.4672C7.48799 16.3406 7.55946 16.208 7.65073 16.2067C7.69487 16.206 7.72285 16.1834 7.7517 16.1514C7.79411 16.104 7.81951 16.0325 7.87569 16.0039C7.89572 15.9935 7.89378 15.9578 7.89356 15.9305C7.8927 15.8624 7.89701 15.8015 7.94437 15.7541C7.97364 15.7251 7.97278 15.6855 7.92456 15.6777C7.90454 15.6743 7.87354 15.6644 7.87656 15.6394C7.88775 15.544 7.83544 15.5886 7.81671 15.5937C7.72651 15.6185 7.6376 15.6519 7.54826 15.6818C7.51877 15.6917 7.43568 15.6331 7.43783 15.5965C7.44192 15.5332 7.48691 15.5703 7.51145 15.5552C7.51705 15.5515 7.52222 15.5468 7.52932 15.541C7.50026 15.5328 7.47249 15.5311 7.44859 15.5169C7.32072 15.4413 7.1795 15.4555 7.04819 15.4041C7.03592 15.3993 7.02085 15.4 7.00858 15.4047C6.90417 15.4458 6.79955 15.428 6.69535 15.4067C6.64024 15.3955 6.59353 15.3608 6.55672 15.3033C6.53928 15.2762 6.52873 15.2443 6.51926 15.2118C6.58944 15.1946 6.65919 15.1662 6.72678 15.1218C6.8581 15.0351 6.98124 14.9401 7.10071 14.8415C7.12181 14.8706 7.14011 14.9035 7.15023 14.9468C7.16422 15.0056 7.19608 15.011 7.22256 14.9911C7.2598 14.9634 7.29166 14.9739 7.32524 14.9899C7.3937 15.0221 7.46043 15.0239 7.52846 14.9836C7.59562 14.9444 7.66365 14.9563 7.72091 15.0131C7.76806 15.0598 7.81671 15.0706 7.87204 15.0708C8.00744 15.0712 8.00421 15.071 8.06492 14.905C8.08645 14.8458 8.08322 14.8228 8.0365 14.8086C7.98462 14.7926 7.94329 14.7662 7.90992 14.721C8.03629 14.7543 8.16976 14.7926 8.3254 14.8346C8.3846 14.8506 8.44789 14.8553 8.51204 14.8547C8.57576 14.8785 8.63754 14.9076 8.67414 14.997C8.68297 15.0181 8.69352 15.0043 8.70191 14.9957C8.73571 14.9597 8.76434 14.9765 8.7919 15.0094C8.8033 15.0228 8.8188 15.0519 8.83043 15.0342C8.8765 14.9636 8.90405 15.0262 8.9273 15.0603C8.96928 15.1214 9.00674 15.1231 9.05108 15.0704C9.03149 15.0176 8.95938 15.0021 8.97617 14.9412C9.00415 14.8394 8.99188 14.7154 9.07261 14.6383C9.11825 14.5948 9.15011 14.5543 9.20457 14.6148C9.25688 14.6727 9.31156 14.6852 9.36215 14.6002C9.38174 14.5677 9.41855 14.5563 9.44955 14.5683C9.54707 14.6056 9.61962 14.7123 9.71929 14.7466C9.73737 14.7526 9.75137 14.784 9.7518 14.8116C9.75459 14.9151 9.77741 14.8811 9.8138 14.8346C9.8364 14.8054 9.87601 14.7662 9.90356 14.795C9.94942 14.843 10.0052 14.8282 10.0504 14.8568C10.1311 14.9085 10.2071 14.8891 10.2855 14.8579C10.3134 14.8467 10.3408 14.8359 10.3711 14.8491C10.4054 14.8639 10.4179 14.8796 10.4013 14.9328C10.3787 15.006 10.3328 15.0415 10.2902 15.0852C10.2734 15.1025 10.2435 15.1175 10.2542 15.1522C10.2659 15.189 10.2977 15.1817 10.3205 15.1733C10.3767 15.1526 10.4301 15.1216 10.4807 15.0831C10.4979 15.0702 10.5098 15.0529 10.5309 15.0861C10.5892 15.1787 10.6717 15.2159 10.7565 15.2435C10.7782 15.2504 10.7939 15.2372 10.812 15.2226C10.8983 15.1522 10.9829 15.1134 11.0802 15.2034C11.131 15.2504 11.1773 15.2977 11.2152 15.3623C11.2906 15.4902 11.3696 15.6142 11.4432 15.7438C11.499 15.8424 11.559 15.9255 11.6552 15.9498C11.6798 15.9559 11.7041 15.9823 11.7224 16.0075C11.7528 16.0493 11.7866 16.0756 11.8283 16.0934C11.8641 16.1085 11.8892 16.1565 11.8849 16.2054C11.8796 16.2622 11.8371 16.2237 11.7932 16.2448C11.8445 16.2396 11.8712 16.2571 11.8912 16.2881C11.9136 16.2676 11.8918 16.2022 11.9211 16.2179C11.9704 16.2446 12.0432 16.2239 12.0658 16.2607C12.1331 16.3699 12.2193 16.36 12.3049 16.3765C12.3566 16.3864 12.4121 16.4017 12.4096 16.5001C12.4089 16.5251 12.4246 16.5158 12.4339 16.5169C12.4905 16.5234 12.5351 16.4398 12.5165 16.3544C12.5064 16.3081 12.5105 16.2674 12.5353 16.239C12.5579 16.2131 12.5859 16.2235 12.6089 16.2502C12.6218 16.2657 12.6386 16.2603 12.6537 16.2644C12.7299 16.2855 12.8149 16.2863 12.8804 16.3348C12.9718 16.4024 13.0379 16.3111 13.1096 16.2898C13.1677 16.2728 13.2427 16.2237 13.276 16.1262C13.2823 16.1068 13.3075 16.0965 13.3262 16.0876L13.3845 16.1247C13.3841 16.1395 13.3789 16.1544 13.3714 16.1662C13.3499 16.2011 13.3247 16.2312 13.3025 16.265C13.2928 16.2794 13.2765 16.3092 13.3006 16.3132C13.3374 16.3197 13.3598 16.3544 13.3888 16.3748C13.4571 16.4228 13.5298 16.4207 13.6022 16.4198C13.6011 16.4676 13.6002 16.5154 13.5998 16.5632C13.5533 16.527 13.5062 16.5335 13.4579 16.529C13.4218 16.5251 13.3878 16.5126 13.3537 16.4956C13.3098 16.4736 13.264 16.4584 13.2315 16.4452C13.1901 16.4381 13.1688 16.445 13.1667 16.4913C13.1615 16.5959 13.1215 16.6754 13.0648 16.7425C13.0502 16.7604 13.0306 16.777 13.0435 16.8104C13.0552 16.8398 13.0668 16.8691 13.0989 16.8627C13.1262 16.8569 13.1522 16.8663 13.1776 16.8814C13.2188 16.9055 13.2599 16.9085 13.3006 16.8784C13.34 16.8491 13.3822 16.8551 13.4168 16.8831C13.4579 16.9171 13.4747 16.9309 13.4863 16.8467C13.4967 16.7718 13.5518 16.7266 13.5976 16.735C13.5985 16.9068 13.6043 17.0784 13.6123 17.2498C13.7492 17.1916 13.8682 17.1232 13.8952 17.0694C14.0209 16.8179 14.1567 16.6721 14.4342 16.918C14.6062 17.0704 14.7231 16.8065 14.716 16.7735C14.6277 16.3501 14.9078 16.0777 15.1173 15.7974V15.7679L15.1495 15.755C15.3685 15.4557 15.6498 15.2084 16.0214 15.0921C15.9781 15.0587 15.9357 15.0742 15.8912 15.0833C15.836 15.0945 15.7771 15.096 15.748 15.0402C15.7301 15.0056 15.7075 14.9955 15.6761 14.9881C15.6406 14.9795 15.5902 14.9707 15.5928 14.9315C15.5956 14.8951 15.6479 14.9055 15.6795 14.8984C15.6998 14.8936 15.7269 14.8964 15.7327 14.8708C15.7377 14.8467 15.7254 14.8228 15.7065 14.8079C15.6264 14.7461 15.5469 14.6837 15.4645 14.6256C15.4161 14.5918 15.3594 14.5776 15.2987 14.5842C15.2843 14.586 15.2651 14.5993 15.2537 14.5774C15.2617 14.5515 15.306 14.5507 15.2966 14.5182C15.2875 14.4876 15.2537 14.4943 15.2303 14.4878C15.1975 14.4785 15.1726 14.4716 15.1737 14.4262C15.1743 14.3879 15.1414 14.3681 15.1028 14.3644C15.0671 14.3612 15.0441 14.3418 15.0169 14.3173C14.9786 14.2822 14.9491 14.2338 14.894 14.2174C14.8611 14.2075 14.8109 14.2019 14.8596 14.1481C14.8729 14.1334 14.8561 14.1257 14.846 14.1188C14.8288 14.1067 14.8157 14.0936 14.8266 14.0708C14.8393 14.043 14.8619 14.0551 14.8826 14.0572C14.9657 14.0654 15.0395 14.1009 15.1142 14.1345C15.1265 14.1401 15.1437 14.1513 15.1558 14.1367C15.1689 14.1207 15.1532 14.1085 15.1429 14.0988C15.1134 14.0708 15.1241 14.0486 15.1534 14.0322C15.1853 14.0146 15.2174 13.9937 15.252 13.9857C15.3153 13.9715 15.2964 13.9496 15.2636 13.922C15.2537 13.9136 15.244 13.9048 15.2344 13.8964C15.207 13.8727 15.1715 13.8551 15.1612 13.8172C15.1442 13.7537 15.2094 13.7696 15.2344 13.7478C15.2916 13.6985 15.3267 13.7095 15.3581 13.778C15.3672 13.7971 15.3724 13.8185 15.3786 13.8391C15.4053 13.9261 15.461 13.9519 15.5545 13.9145C15.5286 13.8998 15.5078 13.8854 15.4845 13.8746C15.4348 13.8512 15.4079 13.8092 15.4038 13.7582C15.3988 13.697 15.3446 13.6589 15.3386 13.5989C15.3366 13.5784 15.3084 13.578 15.2886 13.5788C15.2245 13.5816 15.167 13.5573 15.1071 13.539C15.0609 13.5248 15.0482 13.5026 15.0701 13.4598C15.0813 13.4378 15.0796 13.4187 15.055 13.4055C15.0398 13.3973 15.0251 13.3993 15.0133 13.41C14.9879 13.4331 15.0105 13.4473 15.0245 13.463C15.0382 13.4787 15.0445 13.4968 15.0342 13.5162C15.0212 13.5394 14.9993 13.5317 14.9823 13.5254C14.916 13.5007 14.8503 13.4736 14.7842 13.4473C14.7735 13.443 14.7614 13.4331 14.7674 13.4245C14.7933 13.3881 14.7911 13.3506 14.7832 13.3099C14.781 13.299 14.8172 13.2845 14.7857 13.2716C14.7618 13.2619 14.7474 13.2815 14.7502 13.3033C14.7618 13.3885 14.7041 13.4088 14.6402 13.4243C14.6301 13.3569 14.533 13.3229 14.4499 13.3579C14.4482 13.3765 14.4844 13.3806 14.4704 13.3989C14.4559 13.4184 14.4342 13.4025 14.4178 13.395C14.3591 13.3683 14.3009 13.3401 14.2428 13.3123C14.2267 13.3041 14.2094 13.2962 14.1993 13.3186C14.1909 13.3369 14.2004 13.3612 14.2135 13.3635C14.2798 13.3756 14.2893 13.4391 14.321 13.4802C14.3477 13.5145 14.3616 13.5638 14.3203 13.6038C14.2727 13.6503 14.0874 13.6535 14.037 13.6077C13.9714 13.5474 13.8973 13.5102 13.8065 13.5117C13.7845 13.5121 13.7623 13.5076 13.747 13.491C13.7083 13.449 13.7858 13.3967 13.7348 13.3511C13.7238 13.3409 13.7511 13.3192 13.7688 13.3114C13.7963 13.2994 13.825 13.2903 13.8527 13.2789C13.8924 13.2626 13.941 13.2563 13.9645 13.2191C13.9826 13.1902 14.0008 13.17 14.0349 13.1631C13.9989 13.1551 13.9716 13.1691 13.944 13.1861C13.9076 13.2088 13.8706 13.2314 13.8319 13.2494C13.7873 13.2701 13.7529 13.2544 13.7477 13.2051C13.7434 13.1653 13.721 13.1498 13.6896 13.1364C13.6523 13.1205 13.6149 13.1039 13.5785 13.0854C13.5621 13.0772 13.5417 13.0675 13.5488 13.0421C13.561 12.9988 13.5328 13.0113 13.5141 13.0182C13.4416 13.0453 13.3785 13.0169 13.3682 12.9515C13.3576 12.8852 13.3137 12.8778 13.2756 12.8522C13.2551 12.8387 13.2476 12.8161 13.2362 12.795C13.1972 12.7228 13.1527 12.6537 13.0967 12.593C13.0954 12.5917 13.0926 12.5915 13.0907 12.5909V12.5134C13.1001 12.4694 13.1258 12.4499 13.1708 12.4645C13.169 12.4331 13.0984 12.4182 13.1542 12.3863C13.1942 12.3633 13.1906 12.3478 13.1645 12.32C13.155 12.3099 13.1411 12.2968 13.1522 12.2808C13.1641 12.2641 13.1826 12.2677 13.1998 12.2716C13.2452 12.2811 13.2823 12.308 13.3202 12.3323C13.3798 12.3711 13.4239 12.3237 13.4683 12.3022C13.5083 12.2828 13.4618 12.2522 13.4594 12.2257C13.4564 12.1913 13.4295 12.1543 13.4736 12.1276C13.5247 12.0966 13.6151 12.1045 13.662 12.1428C13.6973 12.1715 13.7257 12.2064 13.7533 12.2423C13.7759 12.2718 13.8071 12.2699 13.8334 12.2483C13.868 12.2201 13.8254 12.2109 13.8157 12.1943C13.8032 12.1721 13.7864 12.1519 13.774 12.1293C13.7294 12.0485 13.7395 12.0315 13.8351 12.0324C13.8028 11.9822 13.8095 11.9123 13.7275 11.8944C13.7005 11.8882 13.6717 11.8714 13.6403 11.8709C13.614 11.8705 13.5761 11.8711 13.5744 11.8442C13.5697 11.7769 13.5111 11.7443 13.4866 11.6903C13.4689 11.6518 13.4788 11.6384 13.5135 11.6322C13.5707 11.6216 13.628 11.6134 13.6855 11.6042C13.7184 11.599 13.7518 11.5941 13.7701 11.5555C13.7038 11.5351 13.6439 11.5271 13.5854 11.5635C13.5397 11.5917 13.5051 11.5656 13.479 11.5336C13.4506 11.4987 13.4581 11.4528 13.473 11.4167C13.4859 11.3846 13.5219 11.4031 13.5483 11.4078C13.5929 11.4152 13.6373 11.4244 13.682 11.4302C13.7257 11.4363 13.7989 11.4156 13.7996 11.4022C13.8041 11.3103 13.8558 11.382 13.8809 11.3762C13.901 11.3719 13.9238 11.3902 13.9511 11.3822C13.9023 11.368 13.8566 11.3566 13.8116 11.3417C13.7666 11.3273 13.7223 11.3105 13.6782 11.2935C13.6586 11.2858 13.6325 11.2787 13.6357 11.252C13.6396 11.2218 13.6687 11.2294 13.6885 11.2287C13.7292 11.2272 13.7701 11.2281 13.811 11.23C13.8487 11.2317 13.8708 11.2229 13.8568 11.179C13.8497 11.1562 13.8493 11.1374 13.8816 11.1329C13.992 11.117 14.0659 11.1534 14.0971 11.2571C14.1162 11.3198 14.1485 11.3215 14.1972 11.3054C14.2105 11.3008 14.231 11.3015 14.2333 11.2838C14.2359 11.2666 14.2168 11.2604 14.2049 11.2522C14.1416 11.2074 14.0807 11.1603 14.026 11.1047C14.0052 11.0836 13.9968 11.0675 14.0021 11.038C14.0127 10.979 13.9955 10.9631 13.9371 10.9738C13.8773 10.9846 13.8174 10.9943 13.7595 10.9693C13.7378 10.96 13.7027 10.9527 13.7154 10.9187C13.7257 10.8905 13.7427 10.8606 13.7869 10.8731C13.8323 10.886 13.879 10.8944 13.9257 10.9019C13.9914 10.9127 14.0441 10.8746 14.0491 10.8132C14.0506 10.7943 14.0596 10.7904 14.0736 10.7953C14.0917 10.8018 14.1087 10.8113 14.1257 10.8205C14.1632 10.8412 14.1763 10.8266 14.1757 10.788C14.1741 10.6877 14.101 10.6339 14.0148 10.6799C13.8962 10.7439 13.7668 10.7228 13.6426 10.7407C13.6149 10.7447 13.5791 10.7249 13.5703 10.6954C13.5628 10.6694 13.5445 10.6515 13.5365 10.6304C13.5255 10.5996 13.5152 10.5678 13.5044 10.5363C13.5486 10.5312 13.5555 10.4636 13.6039 10.4715C13.6756 10.4832 13.7468 10.4819 13.8187 10.4838C13.8805 10.4853 13.9373 10.52 13.9937 10.5465C14.0112 10.5546 14.0362 10.574 14.0467 10.5615C14.0908 10.5084 14.1606 10.4748 14.1916 10.4214C14.2196 10.3738 14.2316 10.3217 14.3057 10.2987C14.2714 10.2903 14.2531 10.2857 14.2349 10.2814C14.1285 10.2571 14.0816 10.202 14.0728 10.0933C14.07 10.059 14.0747 10.0326 14.1165 10.0295C14.1543 10.027 14.1593 10.002 14.1582 9.97056C14.1571 9.94042 14.1574 9.91028 14.1602 9.88035C14.1625 9.85559 14.1767 9.82373 14.2 9.82933C14.2555 9.84203 14.2689 9.80414 14.29 9.77077C14.2979 9.75828 14.308 9.74429 14.3251 9.74601C14.3442 9.74795 14.3466 9.76539 14.3472 9.78024C14.3492 9.81856 14.3677 9.82954 14.4028 9.81706C14.4441 9.80263 14.4579 9.82675 14.4622 9.86119C14.4691 9.91178 14.4622 9.95786 14.4331 10.0026C14.3985 10.0556 14.4062 10.09 14.4521 10.1368C14.4555 10.1189 14.4581 10.1017 14.4617 10.0853C14.4727 10.0384 14.4717 9.98046 14.5509 10.0072C14.5769 10.016 14.5888 9.98628 14.5888 9.96561C14.5892 9.89047 14.6469 9.8993 14.6886 9.90274C14.7358 9.9064 14.7672 9.93934 14.7573 9.99252C14.7502 10.0319 14.7565 10.0571 14.8034 10.0539C14.8467 10.0506 14.8413 10.075 14.8329 10.1032C14.8165 10.1585 14.7978 10.2123 14.745 10.2528C14.7771 10.2627 14.8021 10.2679 14.8253 10.2778C14.863 10.2939 14.8798 10.3282 14.8594 10.3615C14.8266 10.4154 14.7829 10.4588 14.7085 10.4472C14.677 10.4425 14.6445 10.4352 14.6124 10.4444C14.5901 10.4507 14.5739 10.4638 14.5698 10.4877C14.5666 10.5071 14.5735 10.5251 14.592 10.5292C14.6419 10.54 14.6432 10.5699 14.6316 10.6102C14.6279 10.6235 14.6271 10.6423 14.6437 10.6502C14.6622 10.6593 14.6686 10.6395 14.6807 10.6317C14.7231 10.6048 14.7605 10.5667 14.8176 10.5695C14.8505 10.5714 14.846 10.548 14.8451 10.5247C14.8385 10.3943 14.8856 10.346 15.0118 10.3527C15.0288 10.3536 15.0492 10.3602 15.0574 10.3398C15.0673 10.315 15.0462 10.3049 15.0288 10.2969C14.9448 10.2586 14.9158 10.1906 14.9203 10.1025C14.9214 10.0812 14.922 10.0593 14.919 10.0384C14.9121 9.98692 14.9349 9.96884 14.9844 9.96776C15.0464 9.96668 15.0624 9.94666 15.0443 9.8866C15.0236 9.81835 15.004 9.75139 15.0109 9.67884C15.0122 9.66721 15.0066 9.653 14.9995 9.64332C14.9894 9.62846 14.9752 9.6121 14.9915 9.59854C15.0103 9.5826 15.0346 9.59079 15.0492 9.60801C15.0712 9.63427 15.0914 9.66248 15.1089 9.69197C15.1648 9.78627 15.2146 9.88315 15.2253 9.99919C15.2378 9.99166 15.2438 9.98929 15.2481 9.9852C15.319 9.91975 15.3838 9.93568 15.4115 10.0259C15.4173 10.0442 15.4223 10.0633 15.4313 10.0804C15.4854 10.1813 15.4632 10.2459 15.3551 10.2875C15.3181 10.3017 15.3138 10.3219 15.3325 10.3512C15.3637 10.3994 15.3777 10.4541 15.3853 10.509C15.3913 10.5514 15.4113 10.5587 15.4481 10.5624C15.5749 10.5751 15.7019 10.5706 15.8289 10.5689C15.8797 10.5682 15.9028 10.6238 15.9527 10.6244C15.9618 10.6246 15.9613 10.6485 15.9553 10.6595C15.923 10.7168 15.8647 10.7618 15.875 10.8388C15.8759 10.8446 15.8541 10.8517 15.8449 10.8604C15.827 10.8778 15.8162 10.9 15.8251 10.9245C15.8343 10.9499 15.8563 10.9376 15.8752 10.9361C15.9377 10.9314 16.0184 10.9807 16.0444 11.0412C16.0591 11.0752 16.075 11.1036 16.1187 11.0978C16.1348 11.0961 16.1516 11.0993 16.1527 11.1187C16.1568 11.2016 16.2147 11.2675 16.2242 11.3491C16.2276 11.3809 16.2296 11.4221 16.2776 11.4257C16.3202 11.4289 16.3185 11.3891 16.334 11.3659C16.3553 11.3329 16.362 11.2748 16.425 11.3138C16.4373 11.3213 16.4457 11.3123 16.4494 11.3011C16.4664 11.2483 16.4629 11.185 16.5247 11.1553C16.5208 11.069 16.6001 11.0593 16.6489 11.0225C16.6834 10.9969 16.7126 11.0059 16.7331 11.0446C16.7637 11.1021 16.8136 11.1389 16.8685 11.1702C17.0293 11.2623 17.1903 11.3536 17.3501 11.447C17.3981 11.475 17.4267 11.4737 17.4295 11.4111C17.4329 11.3441 17.4934 11.3273 17.5356 11.3168C17.5774 11.3062 17.6176 11.3467 17.6372 11.3908C17.6508 11.4208 17.6613 11.452 17.6743 11.4864C17.7029 11.4444 17.7229 11.4109 17.7128 11.362C17.7025 11.3123 17.7511 11.3125 17.7819 11.3047C17.8176 11.2959 17.8172 11.3275 17.8206 11.3497C17.8265 11.3902 17.8282 11.4313 17.8359 11.4714C17.8534 11.5611 17.8605 11.6468 17.7825 11.7159C17.761 11.7351 17.7772 11.7437 17.7972 11.7495C17.868 11.7697 17.9395 11.784 18.0135 11.771C18.1339 11.7504 18.1765 11.7723 18.2251 11.883C18.2381 11.9127 18.2447 11.945 18.2589 11.9736C18.2884 12.0322 18.3285 12.0927 18.3883 12.1125C18.6443 12.198 18.872 12.337 19.1017 12.472C19.1822 12.5194 19.2658 12.545 19.3581 12.5478C19.4576 12.5506 19.5366 12.6117 19.5682 12.7065C19.5768 12.7321 19.5923 12.7519 19.6143 12.7668C19.6748 12.8083 19.7368 12.8471 19.8046 12.8755C19.8199 12.8819 19.8334 12.8867 19.8457 12.8903C19.8266 13.1588 19.8007 13.4355 19.7708 13.7117C19.7519 13.716 19.7321 13.7209 19.711 13.7218C19.7297 13.7321 19.7491 13.7377 19.7676 13.7429C19.7637 13.7769 19.76 13.8111 19.7562 13.8452C19.7054 13.8613 19.6498 13.8671 19.6068 13.9022C19.607 13.9022 19.607 13.9022 19.607 13.9024C19.7887 13.8759 19.9708 13.8497 20.1521 13.8213C20.2141 13.939 20.3019 14.0073 20.4375 13.9612C20.4567 13.955 20.4758 13.9485 20.495 13.942C20.8788 13.4832 21.0463 12.8163 21.4219 11.9398C21.5905 11.5465 21.6607 11.1958 21.6717 10.8903C21.6618 10.9019 21.6512 10.9135 21.6426 10.9245C21.6064 10.9706 21.5744 10.9269 21.5475 10.8998C21.4984 10.85 21.4542 10.7949 21.4032 10.7475C21.2891 10.6412 21.192 10.5305 21.22 10.362C21.2276 10.3152 21.1981 10.3185 21.1671 10.3297C21.0566 10.3693 20.9518 10.4173 20.8713 10.5051C20.7402 10.6479 20.6638 10.658 20.4885 10.5523C20.442 10.5241 20.4005 10.486 20.3531 10.4601C20.2554 10.4078 20.1428 10.3633 20.0468 10.3925C19.6356 10.518 19.2049 10.543 18.7752 10.576C18.6251 10.5872 18.4934 10.6313 18.3733 10.7153C18.2445 10.8052 18.0826 10.7966 17.9451 10.6967C17.9076 10.6696 17.8678 10.6573 17.8247 10.6576C17.7059 10.6582 17.5875 10.6638 17.4726 10.6892C17.4467 10.6948 17.4243 10.701 17.4052 10.7079C17.1539 10.3219 16.9025 9.91824 16.6569 9.51134C16.6767 9.48766 16.6967 9.46183 16.7223 9.44094C16.6879 9.4446 16.6577 9.45494 16.6293 9.46549C16.599 9.41532 16.5686 9.36495 16.5387 9.31457C16.5863 9.24417 16.6504 9.18389 16.6689 9.09519C16.6211 9.07969 16.5731 9.06698 16.5264 9.0489C16.4778 9.03017 16.4121 9.0222 16.4039 8.95632C16.396 8.8941 16.4528 8.87817 16.5064 8.86784C16.4696 8.82435 16.4395 8.79184 16.413 8.75653C16.3899 8.72596 16.3783 8.69238 16.3986 8.65664C16.4197 8.62004 16.4532 8.61982 16.4896 8.62757C16.5277 8.63575 16.5656 8.64717 16.6041 8.65405C16.6627 8.66482 16.723 8.70702 16.7835 8.6659C16.6407 8.50852 16.6224 8.46869 16.6608 8.46288C16.7077 8.45577 16.7486 8.42843 16.8013 8.43661C16.8635 8.44651 16.8502 8.5195 16.8926 8.54576C16.9275 8.49086 16.9294 8.44178 16.8915 8.39032C16.8549 8.34016 16.8599 8.30421 16.9189 8.28526C16.937 8.27966 16.9809 8.27622 16.9477 8.24393C16.8894 8.18666 16.9486 8.20087 16.9682 8.20237C16.999 8.20453 17.0317 8.22606 17.0607 8.22261C17.1221 8.21594 17.2056 8.27643 17.2398 8.17848C17.2577 8.12767 17.2769 8.07751 17.2967 8.02411C17.1197 8.02067 17.1227 8.01981 17.0601 7.84951C17.0265 7.75909 17.0605 7.71323 17.1387 7.71C17.2147 7.70699 17.2887 7.68158 17.3731 7.72421C17.4205 7.74833 17.4896 7.72292 17.5483 7.71603C17.5688 7.71409 17.5679 7.69364 17.5666 7.67383C17.5582 7.53971 17.5854 7.5044 17.7214 7.49622C17.7866 7.49213 17.8383 7.46349 17.8428 7.40687C17.856 7.25316 17.9569 7.21656 18.0803 7.19804C18.1382 7.18943 18.2004 7.18943 18.2555 7.14745C18.181 7.10611 18.1063 7.08351 18.0572 7.03377C17.9823 6.95821 17.9457 6.97586 17.8878 7.04109C17.8295 7.10697 17.7526 7.08372 17.6555 6.98275C17.6047 6.93 17.6551 6.89061 17.6775 6.85271C17.7074 6.80083 17.7444 6.7539 17.7888 6.68995C17.6794 6.7033 17.6183 6.78554 17.5238 6.78167C17.4131 6.77693 17.3845 6.89125 17.3051 6.93237C17.2807 6.94486 17.2678 6.99717 17.2325 6.9666C17.1953 6.93453 17.2321 6.90331 17.2476 6.87403C17.307 6.76035 17.3662 6.64625 17.4338 6.516C17.388 6.52396 17.3649 6.52806 17.3415 6.53171C17.2736 6.54291 17.191 6.57585 17.1421 6.51514C17.0975 6.46024 17.1755 6.41051 17.1955 6.35711C17.2097 6.31815 17.2299 6.28564 17.1649 6.29102C17.0678 6.29899 17.092 6.24968 17.1204 6.20512C17.2004 6.07853 17.3059 5.98854 17.4674 5.98681C17.5268 5.98617 17.5866 5.98961 17.6435 5.97239C17.6654 5.96571 17.6975 5.9655 17.6951 5.93278C17.693 5.90242 17.6626 5.89618 17.6394 5.88864C17.4941 5.84085 17.3565 5.83137 17.2312 5.92459C17.1322 5.99822 17.0452 6.08326 16.9636 6.17541C16.938 6.20469 16.9139 6.2387 16.8698 6.23892C16.8478 6.2062 16.8648 6.18488 16.8741 6.16421C16.9527 5.9922 17.0698 5.8585 17.242 5.78164C17.2797 5.76485 17.3247 5.75387 17.3449 5.71813C17.3961 5.62663 17.4775 5.62254 17.5699 5.63718C17.6112 5.64364 17.6469 5.66797 17.6222 5.5797C17.5976 5.491 17.707 5.50521 17.7531 5.51726C17.8349 5.53858 17.887 5.5093 17.9423 5.4671C18.0125 5.41349 18.0824 5.35881 18.1558 5.30972C18.214 5.27097 18.3044 5.27786 18.3177 5.34094C18.3403 5.446 18.3896 5.3995 18.4299 5.3911C18.5224 5.37173 18.5991 5.31037 18.7065 5.32522C18.8684 5.34718 18.8966 5.31661 18.908 5.14589C18.9136 5.05977 18.9584 5.03071 19.0378 5.04341C19.0578 5.04664 19.0789 5.0658 19.0964 5.04535C19.1067 5.0335 19.1028 5.01779 19.0927 5.00595C19.0712 4.98054 19.0486 4.9954 19.0249 4.99841C18.9566 5.00767 18.9024 5.05697 18.8288 5.05245C18.7883 5.0503 18.7418 5.07527 18.7123 5.02812C18.6828 4.98033 18.7343 4.97193 18.7551 4.94911C18.7607 4.94287 18.7638 4.9293 18.7614 4.92069C18.7317 4.81434 18.8019 4.78786 18.8744 4.75922C18.9631 4.72456 19.0576 4.71057 19.1489 4.68667C19.2951 4.64835 19.4404 4.60852 19.5906 4.58398C19.6582 4.57278 19.7226 4.55771 19.7915 4.61132C19.836 4.64598 19.909 4.59948 19.9041 4.54996C19.8924 4.43392 19.7506 4.27008 19.6253 4.24059C19.5252 4.21691 19.4229 4.20614 19.3217 4.19086C19.2761 4.18397 19.2305 4.17966 19.1878 4.15619C19.1616 4.14198 19.1364 4.12325 19.1418 4.08945C19.1463 4.06039 19.1732 4.05458 19.1975 4.0535C19.2634 4.05006 19.3301 4.05092 19.3958 4.04704C19.4421 4.04446 19.4815 4.03843 19.4817 3.97061C19.4819 3.91937 19.6664 3.79903 19.7122 3.8184C19.7592 3.83821 19.7934 3.83261 19.8291 3.80871C19.9021 3.75941 19.962 3.82271 20.0029 3.86469C20.0364 3.89914 19.9863 3.94521 19.9562 3.97707C19.928 4.00678 19.8974 4.03477 19.8726 4.06706C19.8059 4.15469 19.8121 4.27891 19.8868 4.34931C19.8845 4.283 19.875 4.21884 19.8883 4.15555C19.8993 4.10452 19.9308 4.06405 19.9755 4.06792C20.07 4.07654 20.1075 4.01216 20.1559 3.9564C20.2143 3.88859 20.2875 3.83067 20.3811 3.87954C20.4397 3.91012 20.4784 3.90258 20.5258 3.88299C20.5796 3.86081 20.6521 3.82508 20.6889 3.8817C20.723 3.93358 20.6461 3.96932 20.6136 4.00915C20.5927 4.03477 20.5553 4.05651 20.5748 4.0972C20.5929 4.1351 20.6325 4.15598 20.6722 4.15835C20.8368 4.16739 21.0013 4.17772 21.1656 4.1788C21.2614 4.17945 21.3479 4.14543 21.4176 4.07869C21.434 4.06297 21.4443 4.02616 21.4814 4.04553C21.4975 4.08838 21.4424 4.13144 21.4878 4.16717C21.5307 4.20054 21.5666 4.15921 21.6032 4.14586C21.654 4.12756 21.6923 4.11335 21.7378 4.17643C21.7763 4.22982 21.8383 4.22573 21.8908 4.19409C21.9395 4.16481 21.9881 4.16954 22.0477 4.17751C22.1321 4.18913 22.2193 4.22746 22.3059 4.19796C22.3575 4.18031 22.4264 4.14026 22.4202 4.25996C22.4184 4.29269 22.4477 4.28774 22.4675 4.28774C22.5015 4.28774 22.5317 4.29312 22.5418 4.33445C22.5536 4.38483 22.5129 4.38978 22.4847 4.40658C22.3711 4.47396 22.2413 4.49528 22.1123 4.51982C22.0908 4.5237 22.0576 4.52477 22.0576 4.55664C22.0574 4.59065 22.0897 4.5928 22.1125 4.59625C22.1786 4.60658 22.1879 4.64684 22.1677 4.697C22.1457 4.75147 22.1265 4.81068 22.0908 4.85417C22.0251 4.93404 22.0716 4.94567 22.1416 4.95299C22.1627 4.95514 22.1836 4.95751 22.2047 4.96009C22.2637 4.96676 22.3265 4.95708 22.3786 4.99927C22.4652 5.06989 22.3666 5.11036 22.3571 5.16354C22.3358 5.28561 22.2798 5.30348 22.1696 5.23954C22.1384 5.22167 22.1102 5.19756 22.0811 5.17538C21.9582 5.08108 21.8607 5.09852 21.7812 5.23825C21.8288 5.23437 21.8704 5.23394 21.9104 5.22705C21.9976 5.21198 22.0747 5.24384 22.1323 5.31015C22.2012 5.38917 22.3089 5.39003 22.3786 5.46667C22.4019 5.49229 22.438 5.46667 22.4619 5.44686C22.5403 5.38228 22.6382 5.36075 22.7323 5.3291C22.8055 5.30477 22.8443 5.32329 22.8606 5.4023C22.869 5.44363 22.8905 5.46818 22.9351 5.4628C22.9631 5.45935 22.9797 5.44299 22.9835 5.41694C22.9919 5.36139 22.9487 5.36333 22.9153 5.35515C22.8815 5.34675 22.855 5.32781 22.8483 5.29121C22.8404 5.24707 22.8761 5.23717 22.9043 5.22985C23.0137 5.20079 23.1245 5.17581 23.2345 5.1489C23.2531 5.14416 23.2782 5.14653 23.2793 5.1644C23.2841 5.23868 23.3256 5.28776 23.3773 5.33599C23.3913 5.34891 23.3605 5.40316 23.4128 5.3911C23.4535 5.38163 23.4518 5.34116 23.4257 5.31424C23.3235 5.20789 23.376 5.12586 23.4406 5.04405C23.5228 5.12673 23.6802 5.08108 23.7495 4.95428C23.7327 4.92737 23.6827 4.95622 23.6812 4.91789C23.6799 4.87742 23.7234 4.87893 23.7521 4.87333C23.8537 4.85417 23.9561 4.83781 24.0582 4.82101C24.087 4.81628 24.1167 4.81132 24.1068 4.77085C24.0989 4.73791 24.0616 4.71358 24.0427 4.72284C23.9467 4.76913 23.8692 4.69098 23.7871 4.66493C23.7183 4.64318 23.65 4.58871 23.661 4.49485C23.6735 4.38634 23.9047 4.20614 24.0153 4.22143C24.1602 4.24145 24.2917 4.2225 24.4052 4.13423C24.4328 4.11249 24.4657 4.09828 24.5016 4.10646C24.5936 4.12691 24.5496 4.27202 24.6607 4.28666C24.6853 4.28967 24.6732 4.34543 24.6588 4.37278C24.6362 4.4154 24.6091 4.45502 24.5858 4.497C24.5522 4.55685 24.4973 4.61175 24.5059 4.68473C24.5126 4.74157 24.5103 4.78635 24.4743 4.8279C24.5279 4.80508 24.5484 4.7603 24.5656 4.71057C24.5882 4.64512 24.6121 4.57903 24.6426 4.51767C24.6777 4.44684 24.7371 4.43586 24.7946 4.49872C24.8407 4.5491 24.885 4.5491 24.938 4.5379C25.0019 4.52413 25.0663 4.51121 25.1315 4.50217C25.1606 4.49808 25.1963 4.49183 25.2133 4.5336C25.242 4.60421 25.265 4.56051 25.2816 4.53295C25.3455 4.42725 25.4542 4.40615 25.5349 4.48667C25.6159 4.56718 25.679 4.53575 25.7537 4.53446C25.7933 4.53381 25.8262 4.5575 25.8619 4.57558C25.9855 4.63802 26.1125 4.69033 26.246 4.72026C26.249 4.7209 26.2525 4.71875 26.2557 4.71789C26.2824 4.7532 26.3089 4.78872 26.3353 4.82403C26.3683 4.89292 26.356 4.94437 26.2837 4.96676C26.3183 5.00832 26.4227 4.96138 26.3853 5.05805C26.3584 5.12737 26.3788 5.14524 26.4404 5.15859C26.4626 5.16354 26.4942 5.16828 26.4961 5.201C26.4981 5.23459 26.471 5.2475 26.4455 5.2587C26.3782 5.28862 26.3037 5.2869 26.2309 5.28906C26.1158 5.29272 26.1086 5.39971 26.0744 5.47098C26.0436 5.53535 26.1338 5.5332 26.164 5.56743C26.2032 5.61199 26.2753 5.63697 26.2471 5.71512C26.2143 5.80597 26.0916 5.88068 25.993 5.87292C25.919 5.86711 25.8473 5.84644 25.7752 5.82298C25.7169 5.80425 25.679 5.83654 25.6678 5.89058C25.6531 5.96206 25.7164 5.93428 25.7455 5.94806C25.7847 5.96636 25.8264 5.9782 25.8652 5.99736C26.0045 6.06539 26.009 6.09855 25.8871 6.18811C25.9795 6.226 26.043 6.32848 26.1655 6.27552C26.2053 6.25808 26.2593 6.25399 26.2996 6.22493C26.3332 6.20038 26.3803 6.16378 26.4102 6.19888C26.4854 6.28693 26.5926 6.27573 26.6791 6.32633C26.7409 6.36271 26.7424 6.39027 26.7047 6.43204C26.6434 6.50028 26.5792 6.56616 26.5162 6.63312C26.4798 6.67165 26.4425 6.70998 26.4591 6.77995C26.564 6.74507 26.6481 6.69943 26.6847 6.59393C26.7131 6.51212 26.7837 6.51492 26.8498 6.5343C26.9213 6.55518 26.959 6.62494 26.9773 6.68845C26.9936 6.74464 26.9293 6.75347 26.8912 6.77241C26.827 6.80427 26.7616 6.83377 26.6989 6.868C26.6376 6.90159 26.5663 6.99911 26.5788 7.01763C26.6679 7.14809 26.5291 7.09879 26.5026 7.13087C26.4819 7.15563 26.4344 7.15218 26.4081 7.189C26.4841 7.16187 26.554 7.13453 26.6257 7.11214C26.6976 7.08932 26.7708 7.07016 26.8442 7.05164C26.8767 7.04346 26.9172 7.02882 26.9402 7.06887C26.9663 7.11386 26.9222 7.13109 26.8981 7.15025C26.8477 7.19115 26.7949 7.22861 26.7413 7.26478C26.6918 7.29794 26.6731 7.33088 26.7357 7.37802C26.7682 7.40235 26.788 7.42797 26.7517 7.46479C26.6283 7.59073 26.4976 7.61097 26.3517 7.49902C26.2634 7.43077 26.2204 7.45919 26.1758 7.52722C26.1633 7.54638 26.1371 7.5649 26.1519 7.59116C26.1666 7.617 26.1969 7.60752 26.2202 7.60752C26.3463 7.60903 26.4718 7.61592 26.5982 7.64025C26.646 7.64929 26.6733 7.6635 26.6966 7.70871C26.7439 7.8 26.7818 7.80495 26.8449 7.73519C26.9095 7.66393 26.9751 7.59375 27.0744 7.57308C27.1112 7.56533 27.1631 7.54229 27.1818 7.60042C27.1975 7.64929 27.2068 7.70613 27.1383 7.73067C27.0675 7.75608 26.9999 7.78901 26.9329 7.82282C26.8391 7.87039 26.8115 7.97244 26.8679 8.06114C26.8854 8.0887 26.8782 8.10269 26.8556 8.10915C26.8259 8.11733 26.7945 8.12035 26.7637 8.12379C26.6951 8.1309 26.6935 8.16362 26.7334 8.21594C26.8386 8.352 26.9867 8.35609 27.0479 8.21142C27.1325 8.01141 27.3176 7.91754 27.4567 7.77567C27.4877 7.74359 27.5531 7.73691 27.5942 7.76899C27.6306 7.79741 27.6724 7.80473 27.7036 7.82626C27.7495 7.85791 27.7951 7.89192 27.8412 7.92465C27.7904 7.97373 27.8513 8.07277 27.7815 8.10786C27.6791 8.15953 27.5904 8.22864 27.4976 8.29452C27.4179 8.35114 27.3105 8.35717 27.2117 8.37439C27.1816 8.37956 27.1297 8.37698 27.1295 8.4041C27.128 8.51842 27.0746 8.63059 27.0899 8.73328C27.1034 8.825 27.1417 8.9081 27.0718 9.00972C27.1234 8.98862 27.1512 8.97742 27.1788 8.9658C27.3385 8.89863 27.4541 8.92941 27.5768 9.07C27.6156 9.11435 27.6367 9.15525 27.5871 9.19853C27.5419 9.23835 27.5611 9.27732 27.5949 9.31952C27.6272 9.35935 27.6578 9.40133 27.6849 9.44482C27.7075 9.48077 27.7219 9.53761 27.6872 9.55225C27.6035 9.58734 27.6259 9.65214 27.6332 9.71759C27.6362 9.74257 27.6373 9.7712 27.6143 9.78498C27.588 9.80048 27.5671 9.77874 27.551 9.75914C27.5092 9.70833 27.4746 9.71092 27.4429 9.76108C27.4055 9.8205 27.3637 9.80005 27.3226 9.75721C27.2621 9.69434 27.2233 9.62459 27.2143 9.53546C27.2037 9.43061 27.1587 9.39078 27.0526 9.37011C27.0668 9.39788 27.0808 9.4235 27.0931 9.44977C27.1275 9.52448 27.1885 9.60263 27.0606 9.64116C27.0186 9.65365 27.0343 9.70575 27.0554 9.73417C27.1321 9.83751 27.05 9.87992 26.9936 9.91501C26.9301 9.95463 26.8567 9.93934 26.8145 9.8571C26.7831 9.79617 26.7491 9.76754 26.6935 9.81641C26.6419 9.86184 26.6236 9.8233 26.6053 9.7768C26.5695 9.68551 26.5379 9.5938 26.5629 9.48874C26.5125 9.50553 26.4753 9.52232 26.4359 9.5305C26.3717 9.54385 26.3153 9.51285 26.3069 9.44762C26.2931 9.3432 26.3039 9.24223 26.4096 9.18733C26.4542 9.16451 26.5028 9.1432 26.534 9.10035C26.556 9.07064 26.5629 9.03749 26.5433 9.00046C26.5278 8.97096 26.5004 8.95266 26.4727 8.96472C26.3988 8.99744 26.3663 8.9574 26.3394 8.8913C26.3308 8.86978 26.3125 8.8433 26.283 8.84782C26.2507 8.85298 26.263 8.88657 26.2555 8.90831C26.2292 8.9856 26.2212 9.07323 26.1463 9.12317C26.1028 9.15181 26.1321 9.1798 26.1573 9.21058C26.2998 9.38346 26.2895 9.49391 26.1229 9.60435C26.1007 9.6192 26.0682 9.62954 26.0787 9.66549C26.0916 9.70877 26.1287 9.70274 26.1586 9.69714C26.3043 9.67023 26.4113 9.73546 26.4955 9.86012C26.5159 9.89069 26.5377 9.92126 26.5631 9.94752C26.6244 10.0112 26.6143 10.0573 26.5525 10.1058C26.4755 10.1663 26.4757 10.2089 26.5603 10.2737C26.6567 10.3477 26.7502 10.4214 26.8158 10.5271C26.8264 10.5441 26.8477 10.5581 26.8666 10.5652C26.8948 10.5755 26.9293 10.5846 26.9228 10.6188C26.9194 10.6375 26.908 10.6489 26.8935 10.656C26.9 10.6532 26.9058 10.6515 26.912 10.6487C26.9319 10.6401 26.9564 10.6397 26.9786 10.6399C26.9876 10.6401 26.9962 10.6526 27.0584 10.7015C26.616 10.8031 26.4298 11.2675 25.9739 11.309C25.8863 11.3172 25.854 11.4093 25.8213 11.4797C25.7321 11.6716 25.5888 11.8137 25.4178 11.9301C25.3539 11.9736 25.2295 12.0479 25.2232 12.0393C24.9541 11.6838 24.5488 12.1506 24.3423 11.9319C24.1124 11.6888 23.8634 11.5437 23.568 11.433C23.4657 11.3949 23.4812 11.3157 23.5394 11.2408C23.5934 11.1715 23.7202 11.187 23.7385 11.0507C23.5519 11.0065 23.4449 11.1056 23.3764 11.2535C23.2582 11.5099 23.0929 11.7631 23.0531 12.0335C22.9924 12.443 22.8492 12.8251 22.7299 13.2111C22.5071 13.9308 22.1778 14.6032 21.4906 15.0099C21.2532 15.1505 20.991 15.2006 20.7077 15.1851C20.0037 15.1464 19.3159 15.1927 18.6339 15.4349C18.3608 15.5317 18.0159 15.4387 17.7038 15.5115C17.3727 15.5888 17.0523 15.6958 16.7352 15.8127C16.2696 16.3257 15.7775 17.292 16.1387 18.9516C16.2272 19.0007 16.3323 19.0238 16.4638 19.0184C16.4756 19.018 16.4864 19.0201 16.4978 19.0203C16.5133 19.0272 16.531 19.0317 16.5471 19.038L17.3688 18.9204V18.991C17.4956 18.991 17.7068 19.0332 18.0445 19.1456C19.3954 19.596 19.3954 19.596 20.0709 20.2718C20.7466 20.9472 21.6471 21.1724 21.6471 21.1724V21.2787C21.6551 21.2738 21.6633 21.2686 21.6753 21.2645C21.6956 21.2583 21.7442 21.2546 21.7076 21.2184C21.6426 21.1551 21.7083 21.1709 21.73 21.1726C21.7642 21.175 21.8004 21.1986 21.8327 21.1952C21.9007 21.1877 21.9937 21.2546 22.0314 21.1461C22.051 21.0899 22.0727 21.0342 22.0942 20.9749C21.8981 20.9711 21.9016 20.9702 21.832 20.7812C21.7948 20.6809 21.8325 20.63 21.9192 20.6266C22.0036 20.6234 22.0854 20.5952 22.1791 20.6425C22.2316 20.669 22.3084 20.6408 22.3735 20.6333C22.3961 20.6309 22.3952 20.6083 22.3939 20.5866C22.3844 20.4376 22.4146 20.3986 22.5655 20.3896C22.6376 20.385 22.6949 20.353 22.7002 20.2903C22.7147 20.12 22.8266 20.0791 22.9635 20.0589C23.0277 20.0494 23.0966 20.0494 23.1579 20.0027C23.075 19.9571 22.9924 19.9316 22.9379 19.877C22.855 19.7928 22.8141 19.8124 22.75 19.8847C22.6854 19.9579 22.6001 19.9321 22.4925 19.8201C22.4359 19.7616 22.4921 19.7179 22.5166 19.6757C22.55 19.6184 22.5911 19.5661 22.6404 19.495C22.519 19.5101 22.4514 19.6012 22.3463 19.5969C22.2236 19.5919 22.1922 19.7187 22.1037 19.7642C22.0766 19.7781 22.0622 19.8356 22.0232 19.802C21.9819 19.7663 22.0228 19.7319 22.0398 19.6996C22.1059 19.5734 22.1715 19.4468 22.2462 19.3026C22.1956 19.3112 22.17 19.3157 22.1442 19.32C22.0688 19.3321 21.9771 19.3687 21.9229 19.3015C21.8738 19.2408 21.9599 19.1854 21.9821 19.126C21.998 19.083 22.0204 19.0468 21.9483 19.0528C21.8407 19.0617 21.8676 19.007 21.8988 18.9575C21.9877 18.8171 22.1046 18.7172 22.2837 18.7155C22.3496 18.7148 22.4161 18.7187 22.4789 18.6993C22.5037 18.692 22.5388 18.6918 22.5362 18.6556C22.5338 18.6218 22.5002 18.6149 22.4744 18.6065C22.3134 18.5536 22.1608 18.5428 22.0219 18.6464C21.9121 18.7282 21.8155 18.8225 21.7255 18.9247C21.6966 18.957 21.6699 18.9949 21.6209 18.9951C21.5967 18.9587 21.6155 18.9351 21.626 18.9122C21.7128 18.7215 21.8426 18.5732 22.034 18.4879C22.0757 18.4692 22.1257 18.4573 22.1478 18.4173C22.2047 18.3163 22.2949 18.3114 22.3973 18.3277C22.4434 18.335 22.4828 18.362 22.4555 18.264C22.4281 18.1658 22.5495 18.1815 22.6006 18.1947C22.6914 18.2184 22.7491 18.1859 22.8107 18.1391C22.8884 18.0797 22.9657 18.019 23.0473 17.9645C23.1116 17.9217 23.2122 17.9292 23.2268 17.999C23.2518 18.1159 23.3067 18.0642 23.351 18.0547C23.4537 18.033 23.5387 17.9654 23.6582 17.9815C23.8373 18.0061 23.8687 17.9723 23.8812 17.7828C23.8875 17.6872 23.9372 17.6549 24.0255 17.6694C24.0476 17.6728 24.0707 17.6939 24.0905 17.6715C24.1019 17.6584 24.0974 17.6407 24.0862 17.6276C24.0625 17.5996 24.0373 17.616 24.0112 17.6194C23.9353 17.6295 23.8752 17.6842 23.7936 17.6795C23.7488 17.6767 23.6972 17.7045 23.6644 17.6521C23.6315 17.5994 23.6888 17.5901 23.7118 17.5645C23.718 17.5574 23.7215 17.5428 23.7187 17.5331C23.6858 17.4151 23.7637 17.3856 23.8442 17.354C23.9424 17.3156 24.0472 17.3001 24.1484 17.2737C24.3107 17.2313 24.4717 17.1869 24.6383 17.1596C24.7135 17.1473 24.7847 17.1305 24.8614 17.1899C24.9107 17.2285 24.9914 17.1768 24.986 17.1221C24.9731 16.9931 24.8157 16.8114 24.6769 16.7787C24.5658 16.7527 24.4526 16.7404 24.3402 16.7236C24.2896 16.7161 24.2388 16.7111 24.1919 16.6855C24.1628 16.6693 24.1348 16.6487 24.1406 16.6112C24.1458 16.5789 24.1755 16.5725 24.2024 16.5712C24.2756 16.5677 24.3494 16.5686 24.4226 16.5643C24.4739 16.561 24.5174 16.5546 24.5176 16.4795C24.5178 16.4224 24.7225 16.2891 24.7735 16.3104C24.8254 16.3326 24.8633 16.3266 24.9027 16.2999C24.9838 16.2454 25.0506 16.3154 25.0956 16.3619C25.1328 16.4 25.0775 16.4513 25.0437 16.4868C25.0125 16.5195 24.9789 16.5505 24.9513 16.5867C24.8771 16.6838 24.884 16.8211 24.9671 16.8993C24.9643 16.8261 24.9539 16.7548 24.9688 16.6848C24.9808 16.6278 25.0157 16.583 25.0654 16.5873C25.1703 16.5968 25.2118 16.5255 25.2654 16.4635C25.3302 16.3886 25.4114 16.3242 25.5154 16.3785C25.5802 16.4123 25.623 16.4039 25.6755 16.3821C25.7354 16.3578 25.8161 16.318 25.8568 16.3806C25.8945 16.4385 25.809 16.4782 25.773 16.5223C25.7498 16.5507 25.7085 16.5748 25.7298 16.6198C25.75 16.6618 25.7941 16.6853 25.8381 16.6874C26.0206 16.6978 26.2032 16.7092 26.3851 16.7105C26.4916 16.7111 26.5872 16.6734 26.6647 16.5992C26.683 16.5817 26.6944 16.5412 26.7355 16.5626C26.7532 16.6099 26.6923 16.6579 26.7426 16.6973C26.7902 16.7346 26.83 16.6887 26.8705 16.6741C26.9269 16.6536 26.9693 16.6379 27.0197 16.7077C27.0625 16.7669 27.1312 16.7623 27.1893 16.7273C27.2434 16.6947 27.2974 16.7001 27.3635 16.709C27.4573 16.7217 27.5538 16.7645 27.6498 16.7313C27.7073 16.712 27.7837 16.6676 27.7766 16.8002C27.7746 16.8368 27.8074 16.8308 27.8291 16.831C27.867 16.831 27.9001 16.8373 27.9113 16.8831C27.9245 16.9387 27.8793 16.9443 27.8481 16.963C27.7221 17.0377 27.5783 17.0614 27.4354 17.0885C27.4115 17.093 27.3747 17.0941 27.3745 17.1292C27.3742 17.1671 27.41 17.1695 27.4356 17.1731C27.5088 17.1847 27.5189 17.2293 27.4965 17.2851C27.4722 17.3456 27.4507 17.4112 27.4113 17.4592C27.3385 17.5475 27.39 17.5609 27.4674 17.5688C27.4909 17.5714 27.5142 17.574 27.5376 17.5766C27.6029 17.5841 27.6728 17.5736 27.7303 17.6203C27.8263 17.6989 27.7172 17.7434 27.7068 17.8024C27.6827 17.9378 27.6209 17.9576 27.4987 17.887C27.464 17.867 27.4326 17.8401 27.4005 17.8155C27.264 17.7111 27.1564 17.7305 27.0681 17.8853C27.1209 17.8808 27.1669 17.8806 27.2113 17.8728C27.3079 17.856 27.3934 17.8913 27.4575 17.965C27.534 18.0526 27.6532 18.0534 27.7303 18.1387C27.7563 18.1671 27.7964 18.1387 27.8231 18.1165C27.9098 18.045 28.0183 18.0212 28.1227 17.9863C28.2039 17.9591 28.247 17.9796 28.265 18.0672C28.2743 18.1129 28.2982 18.1402 28.3475 18.1342C28.3787 18.1305 28.397 18.112 28.4013 18.0834C28.4108 18.022 28.3628 18.024 28.3257 18.0147C28.2881 18.0054 28.2588 17.9848 28.2515 17.9439C28.2426 17.8952 28.2825 17.884 28.3135 17.8758C28.4349 17.8435 28.5578 17.816 28.6799 17.7861C28.7003 17.7809 28.7285 17.7835 28.7296 17.8033C28.7345 17.8857 28.7806 17.9404 28.8383 17.9938C28.8538 18.008 28.8196 18.0681 28.8777 18.0547C28.9225 18.0442 28.9205 17.9994 28.8919 17.9695C28.7785 17.8517 28.8366 17.7607 28.9083 17.67C28.9993 17.7617 29.1739 17.7111 29.251 17.5705C29.2323 17.5406 29.1769 17.5727 29.1754 17.5301C29.1735 17.4851 29.2219 17.4866 29.2536 17.4808C29.3664 17.4595 29.4798 17.4412 29.5933 17.4224C29.6253 17.4173 29.6581 17.4119 29.6471 17.3671C29.6383 17.3305 29.5971 17.3036 29.576 17.3137C29.4695 17.3652 29.3836 17.2782 29.2927 17.2495C29.2161 17.2252 29.1406 17.1649 29.1528 17.061C29.1666 16.9404 29.4226 16.7404 29.5459 16.7574C29.7065 16.7798 29.8525 16.7585 29.978 16.6607C30.0085 16.6368 30.0451 16.6209 30.0852 16.6299C30.187 16.653 30.1383 16.8138 30.2615 16.8297C30.2886 16.8332 30.2753 16.895 30.2591 16.9255C30.2341 16.9727 30.2042 17.0168 30.1782 17.0633C30.1411 17.1294 30.0802 17.1903 30.0897 17.2715C30.097 17.3344 30.0946 17.3841 30.0546 17.4302C30.114 17.4048 30.1368 17.3553 30.156 17.3001C30.1812 17.2274 30.2074 17.1542 30.2415 17.0861C30.2804 17.0078 30.3461 16.9955 30.41 17.0653C30.4612 17.121 30.5103 17.1212 30.5693 17.1083C30.6401 17.0932 30.7114 17.079 30.7835 17.0689C30.8156 17.0644 30.8554 17.0575 30.8744 17.1038C30.9062 17.1822 30.9316 17.1337 30.9499 17.1034C31.0207 16.9856 31.1415 16.9628 31.2308 17.0517C31.3206 17.1413 31.3908 17.1064 31.4737 17.1049C31.5176 17.104 31.554 17.1305 31.5938 17.1505C31.7305 17.2194 31.8715 17.2778 32.0194 17.3109C32.0231 17.3118 32.0267 17.309 32.0306 17.3081C32.0596 17.3473 32.0891 17.3865 32.1186 17.4259C32.1552 17.5021 32.1415 17.5594 32.0614 17.5841C32.0999 17.6304 32.2155 17.5785 32.1742 17.6853C32.144 17.7622 32.1669 17.7822 32.2351 17.797C32.2598 17.8024 32.2947 17.8078 32.2969 17.844C32.2995 17.8812 32.2693 17.8954 32.2409 17.9079C32.1664 17.9413 32.0838 17.9393 32.003 17.9417C31.8752 17.9456 31.8672 18.0642 31.8293 18.1434C31.7953 18.2147 31.8954 18.2123 31.9285 18.2504C31.972 18.2997 32.0521 18.3275 32.0209 18.4143C31.9845 18.515 31.8485 18.5977 31.7391 18.5889C31.6569 18.5824 31.5774 18.5598 31.4976 18.5338C31.4323 18.5129 31.3908 18.5488 31.3783 18.6087C31.3619 18.6879 31.4321 18.6571 31.4646 18.6724C31.5079 18.6931 31.5544 18.7058 31.5975 18.7271C31.7516 18.8027 31.7568 18.8393 31.6216 18.9387C31.7243 18.9809 31.7946 19.0944 31.9303 19.0358C31.9746 19.0164 32.0345 19.0119 32.079 18.9794C32.116 18.9525 32.1686 18.9116 32.2019 18.9506C32.285 19.0483 32.4041 19.0358 32.4999 19.092C32.5686 19.1325 32.5703 19.1628 32.5285 19.2091C32.4603 19.2849 32.3892 19.3581 32.3193 19.4322C32.279 19.475 32.2377 19.5174 32.256 19.5949C32.3724 19.5564 32.4654 19.5056 32.5061 19.3889C32.5378 19.2978 32.6159 19.3013 32.6893 19.3228C32.7685 19.3458 32.8103 19.4231 32.8305 19.4935C32.8486 19.556 32.7774 19.5657 32.735 19.5868C32.6639 19.6221 32.5916 19.655 32.5221 19.6927C32.4538 19.7301 32.3746 19.8382 32.3888 19.8589C32.4874 20.0033 32.3335 19.9489 32.3044 19.9842C32.2814 20.0117 32.2284 20.0079 32.1994 20.049C32.2837 20.0186 32.3615 19.9883 32.4409 19.9633C32.5205 19.9383 32.6017 19.917 32.6831 19.8968C32.7192 19.8875 32.7638 19.8709 32.7896 19.9153C32.8187 19.9652 32.7694 19.9844 32.7425 20.0059C32.687 20.0509 32.6284 20.0927 32.569 20.1325C32.5141 20.1695 32.4932 20.2061 32.5627 20.2582C32.5989 20.2854 32.6209 20.3136 32.5804 20.3545C32.4437 20.4944 32.2986 20.5168 32.1369 20.3924C32.0388 20.317 31.9914 20.3484 31.9419 20.424C31.9277 20.4451 31.8986 20.4656 31.9154 20.4951C31.9316 20.5235 31.9651 20.5127 31.9912 20.5131C32.1309 20.5147 32.27 20.522 32.4101 20.5491C32.4629 20.5592 32.4934 20.5749 32.5195 20.6251C32.5718 20.7263 32.6138 20.7319 32.6839 20.6544C32.7552 20.5754 32.8284 20.4979 32.9382 20.4746C32.9793 20.466 33.0366 20.4406 33.0574 20.5052C33.0749 20.5592 33.0852 20.6223 33.0092 20.6496C32.9306 20.6776 32.8555 20.714 32.7815 20.7517C32.6775 20.8044 32.6467 20.9177 32.7093 21.0161C32.7287 21.0464 32.721 21.0624 32.6958 21.069C32.6628 21.0783 32.628 21.0817 32.5937 21.0854C32.5175 21.0934 32.5158 21.1297 32.5604 21.1877C32.6768 21.3386 32.8411 21.3431 32.9091 21.1825C33.0028 20.961 33.2081 20.857 33.3623 20.6994C33.3967 20.6641 33.469 20.6565 33.5149 20.6923C33.5554 20.7235 33.6014 20.7315 33.6363 20.7556C33.6869 20.7904 33.7377 20.8283 33.7887 20.8647C33.7323 20.9192 33.7997 21.0288 33.7228 21.0677ZM11.8294 15.6166C11.8587 15.5438 11.8901 15.4751 11.9562 15.4527C11.9691 15.4482 11.9908 15.456 11.9818 15.4099C11.9622 15.3115 11.9635 15.2719 12.0046 15.2512L12.4074 15.5063C12.3971 15.513 12.3867 15.521 12.3764 15.5315C12.3435 15.5651 12.3071 15.6064 12.2627 15.6043C12.207 15.6017 12.1717 15.642 12.1329 15.6855C12.0578 15.7701 11.9941 15.871 11.9013 15.929C11.8432 15.9649 11.827 15.9218 11.8225 15.8728C11.8152 15.7968 11.8724 15.7186 11.8212 15.6402C11.8195 15.6375 11.8262 15.6245 11.8294 15.6166ZM12.932 15.8383C12.9271 15.8396 12.9219 15.8407 12.9167 15.8409C12.8971 15.8415 12.889 15.8265 12.8842 15.808L12.932 15.8383ZM19.1502 0C11.6821 0 4.29334 2.06356 0.636719 4.12691V16.4019C0.636719 33.5449 16.7296 38.8887 19.1502 40C21.6222 38.9946 37.6636 33.9682 37.6636 16.5079V4.12691C34.0585 2.06356 26.6694 0 19.1502 0Z" fill="#008566"/>
<path d="M64.3764 29.2952C62.879 29.2952 61.6607 28.8051 60.7214 27.825C59.7821 26.8381 59.3125 25.5211 59.3125 23.8739V23.5268C59.3125 22.431 59.5201 21.4543 59.9353 20.5967C60.3573 19.7323 60.9426 19.0584 61.6913 18.5752C62.4468 18.0851 63.2636 17.8401 64.1416 17.8401C65.5777 17.8401 66.694 18.3132 67.4903 19.2592C68.2867 20.2053 68.6848 21.5598 68.6848 23.3226V24.1088H61.2013C61.2285 25.1978 61.545 26.0792 62.1507 26.753C62.7633 27.42 63.5392 27.7535 64.4785 27.7535C65.1455 27.7535 65.7105 27.6174 66.1733 27.3452C66.6361 27.0729 67.0411 26.7122 67.3882 26.263L68.5419 27.1614C67.6162 28.5839 66.2277 29.2952 64.3764 29.2952ZM64.1416 19.392C63.3793 19.392 62.7395 19.671 62.2222 20.2291C61.7049 20.7805 61.385 21.5564 61.2625 22.5569H66.7961V22.414C66.7416 21.4543 66.483 20.7124 66.0202 20.1883C65.5573 19.6574 64.9311 19.392 64.1416 19.392Z" fill="black"/>
<path d="M71.5484 18.0443L71.6096 19.4328C72.4536 18.371 73.5562 17.8401 74.9175 17.8401C77.2521 17.8401 78.4296 19.1571 78.45 21.7912V25.4411V29.091H76.5612V21.781C76.5544 20.9846 76.3707 20.3959 76.0099 20.0147C75.656 19.6336 75.1013 19.443 74.3458 19.443C73.7332 19.443 73.1955 19.6064 72.7327 19.9331C72.2698 20.2598 71.9091 20.6886 71.6505 21.2195V29.091H69.7617V18.0443H71.5484Z" fill="black"/>
<path d="M83.141 26.6305H89.6445V29.091H80.0782V14.2259H83.141V26.6305Z" fill="black"/>
<path d="M95.1829 29.2952C93.563 29.2952 92.2426 28.7983 91.2216 27.8046C90.2075 26.8109 89.7004 25.487 89.7004 23.8331V23.5472C89.7004 22.4378 89.9148 21.4475 90.3436 20.5763C90.7724 19.6982 91.3782 19.0244 92.1609 18.5548C92.9504 18.0783 93.8489 17.8401 94.8562 17.8401C96.3672 17.8401 97.5549 18.3166 98.4193 19.2694C99.2905 20.2223 99.7262 21.5734 99.7262 23.3226V24.5273H92.6918C92.7871 25.2488 93.0729 25.8274 93.5494 26.263C94.0326 26.6986 94.6418 26.9164 95.3769 26.9164C96.5136 26.9164 97.4018 26.5046 98.0416 25.681L99.4913 27.3043C99.0489 27.9305 98.45 28.4206 97.6945 28.7745C96.9389 29.1216 96.1018 29.2952 95.1829 29.2952ZM94.846 20.2291C94.2607 20.2291 93.7842 20.4265 93.4167 20.8213C93.0559 21.2161 92.8245 21.781 92.7224 22.5161H96.8266V22.2812C96.813 21.6278 96.6361 21.1242 96.2957 20.7702C95.9554 20.4095 95.4722 20.2291 94.846 20.2291Z" fill="black"/>
<path d="M100.742 23.486C100.742 21.764 101.127 20.3925 101.896 19.3715C102.672 18.3506 103.73 17.8401 105.071 17.8401C106.146 17.8401 107.035 18.2417 107.736 19.0448V13.4092H110.696V29.091H108.032L107.889 27.9169C107.154 28.8358 106.208 29.2952 105.051 29.2952C103.751 29.2952 102.706 28.7847 101.916 27.7638C101.134 26.736 100.742 25.3101 100.742 23.486ZM103.693 23.7004C103.693 24.7349 103.873 25.5279 104.234 26.0792C104.595 26.6305 105.119 26.9062 105.806 26.9062C106.718 26.9062 107.361 26.5216 107.736 25.7525V21.393C107.368 20.6239 106.732 20.2393 105.827 20.2393C104.404 20.2393 103.693 21.393 103.693 23.7004Z" fill="black"/>
<path d="M111.436 23.486C111.436 21.7912 111.838 20.4265 112.641 19.392C113.451 18.3574 114.54 17.8401 115.908 17.8401C117.12 17.8401 118.062 18.2553 118.736 19.0857L118.859 18.0443H121.534V28.7235C121.534 29.69 121.312 30.5305 120.87 31.2452C120.434 31.9599 119.818 32.5044 119.022 32.8787C118.226 33.2531 117.293 33.4403 116.225 33.4403C115.415 33.4403 114.625 33.2769 113.856 32.9502C113.087 32.6303 112.505 32.2151 112.11 31.7046L113.417 29.9078C114.152 30.7313 115.044 31.1431 116.092 31.1431C116.875 31.1431 117.484 30.9321 117.919 30.5101C118.355 30.0949 118.573 29.5028 118.573 28.7337V28.1415C117.892 28.9106 116.997 29.2952 115.888 29.2952C114.561 29.2952 113.485 28.7779 112.662 27.7433C111.845 26.702 111.436 25.3237 111.436 23.6085V23.486ZM114.387 23.7004C114.387 24.7009 114.588 25.487 114.989 26.0588C115.391 26.6237 115.942 26.9062 116.643 26.9062C117.542 26.9062 118.185 26.5692 118.573 25.8954V21.2501C118.178 20.5763 117.542 20.2393 116.664 20.2393C115.956 20.2393 115.398 20.5286 114.989 21.1072C114.588 21.6857 114.387 22.5501 114.387 23.7004Z" fill="black"/>
<path d="M127.777 29.2952C126.157 29.2952 124.836 28.7983 123.815 27.8046C122.801 26.8109 122.294 25.487 122.294 23.8331V23.5472C122.294 22.4378 122.508 21.4475 122.937 20.5763C123.366 19.6982 123.972 19.0244 124.754 18.5548C125.544 18.0783 126.442 17.8401 127.45 17.8401C128.961 17.8401 130.149 18.3166 131.013 19.2694C131.884 20.2223 132.32 21.5734 132.32 23.3226V24.5273H125.285C125.381 25.2488 125.667 25.8274 126.143 26.263C126.626 26.6986 127.235 26.9164 127.97 26.9164C129.107 26.9164 129.995 26.5046 130.635 25.681L132.085 27.3043C131.643 27.9305 131.044 28.4206 130.288 28.7745C129.533 29.1216 128.695 29.2952 127.777 29.2952ZM127.44 20.2291C126.854 20.2291 126.378 20.4265 126.01 20.8213C125.65 21.2161 125.418 21.781 125.316 22.5161H129.42V22.2812C129.407 21.6278 129.23 21.1242 128.889 20.7702C128.549 20.4095 128.066 20.2291 127.44 20.2291Z" fill="black"/>
<path d="M139.094 20.8111C138.692 20.7566 138.338 20.7294 138.032 20.7294C136.915 20.7294 136.184 21.1072 135.837 21.8627V29.091H132.886V18.0443H135.673L135.755 19.3613C136.347 18.3472 137.167 17.8401 138.216 17.8401C138.542 17.8401 138.848 17.8844 139.134 17.9728L139.094 20.8111Z" fill="black"/>
<path d="M50.6496 27.4882H59.1541V29.0911H48.332V27.621L56.4792 15.8392H48.4648V14.2261H58.8274V15.6656L50.6496 27.4882Z" fill="black"/>
</svg>
